<svg id="Layer_1" enable-background="new 0 0 500 500" viewBox="0 0 500 500" xmlns="http://www.w3.org/2000/svg"><path clip-rule="evenodd" d="m453.58 237.537c-.033-.547.098-1.038.246-1.53-18.875.485-39.847 10.414-45.221 30.22 19.807 3.971 39.004-10.919 44.975-28.69zm-58.784-140.827c.986 1.794 3.487 6.048 4.885 7.378 14.268-14.323 12.55-40.178-.448-54.374-1.23 2.012.476 1.229-2.028 3.88-7.234 12.471-9.441 30.032-2.409 43.116zm13.809 88.256c19.982 4.107 40.471-11.556 45.221-30.166-18.567.34-39.915 10.408-45.221 30.166zm-161.834-50.986c1.174 2.192 3.248 5.597 4.88 7.378 14.367-14.852 12.593-39.914-.448-54.375-1.197 3.612-5.028 8.078-5.853 11.421-2.86 11.309-4.941 24.836 1.421 35.576zm13.815 88.256c19.824 4.084 40.416-11.436 45.21-30.166-19.149.462-39.686 10.317-45.21 30.166zm0 81.206c20.13 4.028 40.279-11.409 45.21-30.165-18.619.317-40.025 10.575-45.21 30.165zm-161.844-206.732c1.143 2.111 3.255 5.665 4.88 7.378 14.503-14.889 12.453-39.9-.437-54.374-1.226 1.936.475 1.224-2.033 3.88-7.244 12.486-9.44 29.991-2.41 43.116zm13.815 88.256c19.977 4.105 40.452-11.523 45.215-30.166-18.497.299-39.975 10.464-45.215 30.166zm0 81.261c20.057 3.967 40.406-11.48 45.215-30.22-19.116.601-39.648 10.258-45.215 30.22zm345.794-28.635c2.84 27.154-26.633 44.912-51.167 42.516-.22 13.527-.495 28.247-4.929 40.767 4.563.694 11.915 2.024 15.853 2.842 2.631 1.513 6.119.614 7.995 3.333-.367.282-1.516.273-1.995.273.002.003.642.547.022.547-.093.164-.186.273-.29.437.126.442 2.685 1.007-2.814 1.148-21.223 1.994-42.369.745-63.14 4.864-37.228 5.859-67.48 29.407-98.585 48.691 9.409 11.068 18.705 24.76 24.87 37.871 21.747-39.972 92.429-67.273 134.744-46.398 7.618 5.242 3.33 2.835 6.236 6.997-1.781.457-.938.69-1.634.492-.808-.23-.809.623-1.891.437-2.1-.361-2.734.536-3.35.383-39.301-4.456-81.74 3.057-113.635 28.745 0 0-4.65 3.989-4.65 3.989-.861 1.139-1.178.579-1.754.984l-4.672 4.044c-2.743 2.302-2.595 1.824-4.574 4.7-.514.747-.612-.401-2.296 1.694 2.405 8.89 6.425 18.881 3.05 27.98-1.547-2.062-1.277-.924-1.639-1.967-.525-1.514-1.031-.684-1.749-2.459-1.862-4.608-1.939-1.269-4.328-8.033-29.887-61.499-93.229-109.192-162.735-110.443-6.682-.58-15.343-.758-21.995-.655-2.214-.139-6.214 1.422-7.029.819-.5-.37-3.758.109-3.76.109-3.374 1.011-4.958.702-7.902.055.356-.422 1.856-.917 2.448-1.148-.918 0-.355-.316-.087-.984-5.454-.728 18.683-6.784 19.968-7.104-2.819-12.639-3.612-28.325-4.284-41.696-24.469 2.589-50.608-14.996-54.484-39.674.146-3.379-1.806-6.579.809-9.454l.432 2.842c.431-.618-.218-.648 1 .164.547-.27-.17-2.473 2.006 2.077 9.508 17.374 28.066 34.937 49.544 29.892-8.297-25.027-30.089-27.62-51.866-34.264 1.454-1.646.227-1.052 1.339-1.585 1.393-.668 1.014-1.081 2.153-1.585 2.674-.982 2.236-2.13 5.58-2.241 15.482-3.843 32.277 1.057 43.177 12.897.205-12.306-.339-27.859.033-40.221-24.653 2.225-50.138-14.983-54.205-39.729.148-3.134-1.806-6.923.809-9.509l.432 2.842c.522-.75-.155-.552 1 .219.333-.164.137-.601.372-.82 9.542 18.082 27.489 37.827 51.178 32.789-8.277-24.937-30.151-27.771-51.866-34.264 3.8-5.703 13.638-6.531 19.509-6.448 12.665-1.4 25.359 5.928 33.86 15.082-.227-11.461 1.429-25.73 1.775-36.559.62-.508.36-3.421.35-4.098-23.977-16.288-29.394-64.011 1.945-74.649.826.518 1.12.132 1.596.546.459.383.415.383.645.383-.284 1.023-.049 1.639-.098 1.639-.016.109-.016.219.022.328l.137-.601c.216.433.158-.383.383-.383.922-.583-1.473-2.601 2.754-.219 27.913 14.007 22.634 60.35-2.29 74.485 3.344 13.217 4.339 26.352 4.372 39.783 12.023-13.98 35.464-23.715 51.489-10.438l.601 1.858c-.082.601-.126.601-.006.765l-1.661 1.038.557-.273-.005.273s.393-.285.568-.109c1.042.48 1.236-2.765 1.694 2.186 2.933 27.62-27.889 45.519-52.55 42.461.419 12.758.838 28.505 1.224 41.314 11.954-12.433 33.965-20.574 48.932-8.908 1.593 1.723.152-.223 1.246 2.296.089.204-.195.64-.006.984l-1.661.984.552-.219c-.016.109-.016.164 0 .219.796-.314.443-.052.978-.055.432-.089.992-2.259 1.284 2.131 3.018 27.014-26.957 45.102-51.167 42.516-.268 14.053-.401 29.16-5.454 42.079 50.928-5.907 103.594 14.384 141.488 48.472-1.706-17.393-3.005-34.483-2.541-51.97-24.185 2.736-50.856-15.395-54.417-39.675.35-.397-.159-2.513-.159-2.513-.927-1.34-.376-6.33.967-6.94l.432 2.842c.194-.777.273-.321 1 .164.483-.237-.012-2.059 1.41.82 9.639 18.372 27.997 36.022 50.139 31.149-8.073-24.791-30.362-27.812-51.872-34.264 3.762-5.7 13.734-6.535 19.515-6.448 12.114-1.327 23.971 5.243 32.816 13.989-.308-13.546-.347-26.771.251-40.33-24.79 2.217-50.143-14.397-54.5-39.674.164-3.041-1.81-7.06.809-9.509l.432 2.842c.304-.609.122-.557.535-.109.714.773.655-.366.836-.492 9.395 18.212 28.577 38.111 51.178 32.789-6.219-21.025-27.659-28.767-47.468-32.515-1.511-.673-1.065-1.259-2.218-1.422-.604-.085-.484-.539-2.186-.328 3.645-5.235 11.957-6.613 18.712-6.394 13.355-1.675 25.927 5.666 34.761 15.137-.144-13.098 1.768-28.512 2.033-40.767-23.903-16.389-29.406-63.406 1.645-74.65 0 .001 1.891.493 1.891.493.459.437.416.437.639.437l-.071 1.967c.185-1.236-.033-.492.295-.492.069-.699.351-.544.492-.82.191-.375-1.334-2.088 2.475.055 28.018 14.143 22.576 60.417-2.399 74.539 2.878 13.366 4.424 26.36 4.394 39.838 11.874-13.964 35.008-23.302 50.943-11.149 1.431 1.548.268-.058 1.246 2.296.093.225-.206.711-.006.984l-1.661 1.038c.857-.614.503-.151.552-.055l.568-.109c.994.207.918-.967 1.257-.437 5.619 28.597-26.498 48.424-52.167 45.139-.044 13.332.75 28.383.863 41.751 11.025-11.607 29.316-19.347 44.822-12.242 2.836 1.482 5.847 2.742 5.766 6.176l-1.661.984.557-.273-.006.273c.05 0 .378-.299.568-.109 1.027.478 1.253-2.724 1.694 2.186 2.97 26.887-26.73 44.973-50.855 42.516-.569 18.857.592 40.723-4.104 58.528 33.332-41.039 89.135-59.59 140.876-55.959-2.041-12.692-2.969-25.632-3.536-38.527-24.51 2.538-49.454-14.516-54.554-38.855.494-3.333-1.878-7.275.89-10.273l.432 2.842c.333-.665-.055-.539 1 .164.535-.267-.167-2.466 2.006 2.077 9.281 17.298 28.516 35.066 49.544 29.892-6.341-21.675-28.426-28.55-48.162-32.842.001-.001-1.448-1.703-3.71-1.422 1.423-1.642.255-1.068 1.333-1.585 1.461-.701.968-1.054 2.164-1.585 2.672-.989 2.249-2.131 5.58-2.241 15.479-3.843 32.281 1.058 43.177 12.897.192-12.307-.339-27.859.022-40.221-24.647 2.23-50.148-15.004-54.194-39.729.142-3.071-1.797-7.052.809-9.509l.432 2.842c.374-.749 0-.448 1 .219.328-.164.137-.601.361-.82 9.667 18.516 28.299 38.015 51.188 32.789-8.287-24.935-30.137-27.764-51.871-34.264 3.794-5.697 13.65-6.532 19.515-6.448 13.001-1.331 25.057 5.856 33.849 15.082.226-1.944-.184-17.163.792-18.471.406-5.322.795-13.789.999-18.089.617-.512.34-3.519.34-4.098-18.518-13.958-25.669-40.425-14.47-61.315 1.645-4.546 13.511-16.219 18.656-12.405-.287 1.032-.047 1.639-.098 1.639-.016.109-.016.219.027.328l.131-.601c.256.427.12-.383.377-.383.634-.791.094-.547.104-1.093.024-1.34 11.138 5.234 15.586 12.241 11.582 20.398 5.263 51.055-15.225 63.118 3.346 13.248 4.361 26.322 4.372 39.783 11.837-13.888 34.808-23.235 50.85-11.094 1.325 1.435.347.01 1.251 2.35.086.222-.223.658-.005.929l-1.672 1.038.563-.273v.273l.978-.055c.356-.01 1.001-2.402 1.284 2.132 2.774 28.066-27.771 45.287-52.549 42.461.455 12.34.801 29.006 1.219 41.314 11.952-12.43 33.961-20.584 48.932-8.908 1.35 1.462.328-.094 1.251 2.296.105.273-.221.625-.005.984l-1.672.984.563-.219c-.027.109-.027.164 0 .219.788-.315.442-.051.978-.055.388-.082 1.007-2.264 1.282 2.131zm-217.208 212.361c-22.658-60.196-95.201-97.058-156.637-76.015-.929.315-.829 1.095-3.552 2.131-1.423.541-.674 1.046-1.842 1.421-.891.286.212.02-1.448 1.366 4.813 3.451 11.636 2.572 17.105 3.169 13.757.016 36.122-.026 49.56 3.499 39.363 6.055 68.107 35.616 91.977 65.14 3.384 4.441 2.29 2.04 2.591 1.638.955 0 .861.366.929-.328.448.471.88 1.263 1.41 1.475.285-.856.201-2.68-.093-3.496z" fill-rule="evenodd"/></svg>