<svg id="Layer_1" viewBox="0 0 128 128" xmlns="http://www.w3.org/2000/svg" data-name="Layer 1"><path d="m96 23.99878a2.0001 2.0001 0 0 0 2-2v-4.00006a2 2 0 0 0 -4 0v4.00006a2.0001 2.0001 0 0 0 2 2z"/><path d="m96 35.9989a2.0001 2.0001 0 0 0 2-2v-4.00006a2 2 0 0 0 -4 0v4.00006a2.0001 2.0001 0 0 0 2 2z"/><path d="m96 47.99908a2.00011 2.00011 0 0 0 2-2.00008v-4a2 2 0 1 0 -4 0v4a2.00011 2.00011 0 0 0 2 2.00008z"/><path d="m96 59.99921a2.0001 2.0001 0 0 0 2-2v-4.00006a2 2 0 1 0 -4 0v4.00006a2.0001 2.0001 0 0 0 2 2z"/><path d="m96 71.99933a2.0001 2.0001 0 0 0 2-2v-4.00006a2 2 0 0 0 -4 0v4.00006a2.0001 2.0001 0 0 0 2 2z"/><path d="m96 83.99945a2.0001 2.0001 0 0 0 2-2v-4.00006a2 2 0 0 0 -4 0v4.00006a2.0001 2.0001 0 0 0 2 2z"/><path d="m96 95.99963a2.00011 2.00011 0 0 0 2-2.00006v-4a2 2 0 1 0 -4 0v4a2.00011 2.00011 0 0 0 2 2.00006z"/><path d="m96 107.99976a2.0001 2.0001 0 0 0 2-2v-4.00006a2 2 0 1 0 -4 0v4.00006a2.0001 2.0001 0 0 0 2 2z"/><path d="m96 119.99988a2.0001 2.0001 0 0 0 2-2v-4.00006a2 2 0 1 0 -4 0v4.00006a2.0001 2.0001 0 0 0 2 2z"/><path d="m116 15.99872a2.0001 2.0001 0 0 0 -2 2v4.00006a2 2 0 0 0 4 0v-4.00006a2.0001 2.0001 0 0 0 -2-2z"/><path d="m116 27.99884a2.0001 2.0001 0 0 0 -2 2v4.00006a2 2 0 0 0 4 0v-4.00006a2.0001 2.0001 0 0 0 -2-2z"/><path d="m116 39.999a2.00011 2.00011 0 0 0 -2 2.00006v4a2 2 0 1 0 4 0v-4a2.00011 2.00011 0 0 0 -2-2.00006z"/><path d="m116 51.99908a2.00015 2.00015 0 0 0 -2 2.00006v4.00006a2 2 0 0 0 4 0v-4.00005a2.00015 2.00015 0 0 0 -2-2.00007z"/><path d="m116 63.99927a2.0001 2.0001 0 0 0 -2 2v4.00006a2 2 0 1 0 4 0v-4.00006a2.0001 2.0001 0 0 0 -2-2z"/><path d="m116 75.99939a2.0001 2.0001 0 0 0 -2 2v4.00006a2 2 0 0 0 4 0v-4.00006a2.0001 2.0001 0 0 0 -2-2z"/><path d="m116 87.99951a2.00011 2.00011 0 0 0 -2 2.00006v4a2 2 0 1 0 4 0v-4a2.00011 2.00011 0 0 0 -2-2.00006z"/><path d="m116 99.99963a2.00015 2.00015 0 0 0 -2 2.00006v4.00006a2 2 0 0 0 4 0v-4.00006a2.00015 2.00015 0 0 0 -2-2.00006z"/><path d="m116 111.99982a2.0001 2.0001 0 0 0 -2 2v4.00006a2 2 0 0 0 4 0v-4.00006a2.0001 2.0001 0 0 0 -2-2z"/><path d="m74 52.99915h4a2 2 0 0 0 0-4.00006h-4a2 2 0 0 0 0 4.00006z"/><path d="m74 60.99921h4a2 2 0 0 0 0-4.00006h-4a2 2 0 0 0 0 4.00006z"/><path d="m74 68.99933h4a2 2 0 0 0 0-4.00006h-4a2 2 0 0 0 0 4.00006z"/><path d="m74 76.99939h4a2 2 0 0 0 0-4.00006h-4a2 2 0 0 0 0 4.00006z"/><path d="m74 84.99951h4a2 2 0 0 0 0-4.00006h-4a2 2 0 0 0 0 4.00006z"/><path d="m6 128h70a6.00661 6.00661 0 0 0 6-6.00006v-13.2951c0-12.51965-9.645-22.70532-21.5-22.70532h-6.5v-3.18165a18.93074 18.93074 0 0 0 6-13.81854v-5.10114a5.00844 5.00844 0 0 0 4-4.899v-2.00004a4.99772 4.99772 0 0 0 -3.20258-4.65215 20.02455 20.02455 0 0 0 -11.816-15.65985 4.829 4.829 0 0 0 -.77386-2.3269 5.28025 5.28025 0 0 0 -4.45856-2.36135h-5.498a5.28025 5.28025 0 0 0 -4.4585 2.36133 4.88219 4.88219 0 0 0 -.77911 2.32916 20.02474 20.02474 0 0 0 -11.81081 15.65761 4.99772 4.99772 0 0 0 -3.20258 4.65215v2.00006a5.00844 5.00844 0 0 0 4 4.899v5.10114a18.93074 18.93074 0 0 0 6 13.81854v3.18164h-6.5c-11.855-.00002-21.5 10.18565-21.5 22.7053v13.2951a6.00661 6.00661 0 0 0 6 6.00007zm72-19.29517v13.2951a2.002 2.002 0 0 1 -2 2h-9v-7.65485a5.98294 5.98294 0 0 1 4.15576-5.70959l6.83118-2.2066c.00128.09284.01306.1828.01306.27594zm-43.93945-68.09588.82178 2.11469a2.00014 2.00014 0 1 0 3.72852-1.44928l-1.5376-3.95068a.777.777 0 0 1 .06982-.77832 1.29751 1.29751 0 0 1 1.10793-.54646h5.498a1.29751 1.29751 0 0 1 1.10791.54645.83173.83173 0 0 1 .03564.86035l-1.50342 3.86865a2.00014 2.00014 0 1 0 3.72852 1.44928l.82068-2.11523a16.0279 16.0279 0 0 1 8.77472 11.39069h-31.42612a16.028 16.028 0 0 1 8.77362-11.39014zm-12.06055 18.39026v-2.00006a1.0013 1.0013 0 0 1 1-1h36a1.0013 1.0013 0 0 1 1 1v2.00006a1.0013 1.0013 0 0 1 -1 1h-36a1.0013 1.0013 0 0 1 -1-1zm4 10.00012v-5.00006h30v5.00006a15 15 0 1 1 -30 0zm24 16.72729v12.25446l-8.96759 6.52192c-.011-.00018-.0213-.0033-.03241-.0033s-.02136.00311-.03241.0033l-8.96759-6.52192v-12.25446a18.95518 18.95518 0 0 0 18 0zm-28.5 4.27295h6.5v9.00006a2.00078 2.00078 0 0 0 .82373 1.61774l10.17627 7.401v9.815a2 2 0 0 0 4 0v-9.815l10.17627-7.401a2.00078 2.00078 0 0 0 .82373-1.61774v-9.00006h6.5c8.25458 0 15.17542 6.14795 17.00873 14.37994l-7.58246 2.44934a9.97256 9.97256 0 0 0 -6.92627 9.51624v7.65485h-44v-7.65485a9.97256 9.97256 0 0 0 -6.92627-9.51624l-7.58246-2.44934c1.83331-8.23199 8.75415-14.37994 17.00873-14.37994zm-17.5 18.70526c0-.09314.01178-.18311.01306-.27594l6.83118 2.2066a5.98294 5.98294 0 0 1 4.15576 5.7096v7.65485h-9a2.002 2.002 0 0 1 -2-2z"/><path d="m64 68.99933v13.25793a24.33115 24.33115 0 0 1 4 .92261v-24.18066a9.04786 9.04786 0 0 1 -4 7.47028z"/><path d="m124.39111 8.6441-15.25097-7.94635c-.03125-.01611-.063-.03174-.09521-.0459a7.43759 7.43759 0 0 0 -6.08984 0c-.03223.01416-.064.02979-.09521.0459l-15.25099 7.94635a5.94041 5.94041 0 0 0 -3.60889 5.3404v14.01434h-22a2.0001 2.0001 0 0 0 -2 2v10.00016a1.99166 1.99166 0 0 0 .05609.45276q.46362.60654.88947 1.2403a1.98351 1.98351 0 0 0 1.05444.30694h2v6.1933c.16125.54193.31061 1.0882.43311 1.64319a8.925 8.925 0 0 1 3.56689 7.16366v-15.00015h16v56.33968a27.64491 27.64491 0 0 1 2 10.36615v13.2951a9.93551 9.93551 0 0 1 -2.019 6.00007h42.019a2.00011 2.00011 0 0 0 2-2.00006v-112.01544a5.94041 5.94041 0 0 0 -3.60889-5.3404zm-40.39111 29.3549h-20v-6.0001h20zm20 86.001h-16v-110.0155a2.01371 2.01371 0 0 1 1.31934-1.72461c.03223-.01416.064-.02979.09521-.0459l14.58545-7.59955zm20 0h-16v-119.38556l14.58545 7.59956c.03125.01611.063.03174.09521.0459a2.01371 2.01371 0 0 1 1.31934 1.7246z"/></svg>