<?xml version="1.0" encoding="UTF-8"?>
<svg xmlns="http://www.w3.org/2000/svg" viewBox="0 0 64 64" width="512" height="512"><g id="Icon"><path d="M57,44H55V36a2,2,0,0,0-2-2H51a2,2,0,0,0-2,2v8H48V30a2,2,0,0,0-2-2H44a2,2,0,0,0-2,2V44H41V33a2,2,0,0,0-2-2H37a2,2,0,0,0-2,2V44a1.001,1.001,0,0,1-1-1V27a1,1,0,0,0-2,0V43a3.00328,3.00328,0,0,0,3,3H57a1,1,0,0,0,0-2ZM37,44l-.00146-11H39V44Zm7,0-.00146-14H46V44Zm7,0-.00146-8H53v8ZM46,14a.99974.99974,0,0,1,1-1h9a1,1,0,0,1,0,2H47A.99974.99974,0,0,1,46,14Zm-3,0a1,1,0,1,1,1,1A1,1,0,0,1,43,14Zm3,4a.99974.99974,0,0,1,1-1h9a1,1,0,0,1,0,2H47A.99974.99974,0,0,1,46,18Zm0,4a.99974.99974,0,0,1,1-1h9a1,1,0,0,1,0,2H47A.99974.99974,0,0,1,46,22Zm-3-4a1,1,0,1,1,1,1A1,1,0,0,1,43,18Zm0,4a1,1,0,1,1,1,1A1,1,0,0,1,43,22ZM59,7H9a3.00328,3.00328,0,0,0-3,3V23.05054a3.48313,3.48313,0,0,0,0,6.89892v4.69147A12.98893,12.98893,0,1,0,26.521,50H59a3.00328,3.00328,0,0,0,3-3V10A3.00328,3.00328,0,0,0,59,7ZM5,26.5A1.5,1.5,0,1,1,6.5,28,1.50164,1.50164,0,0,1,5,26.5Zm9,6.55066V43.40228L4.88232,48.31183A10.99121,10.99121,0,0,1,14,33.05066Zm2,0A11.01139,11.01139,0,0,1,25.94934,43H16ZM15,55a10.99542,10.99542,0,0,1-9.16449-4.92914L15.25287,45H25.94934A11.01125,11.01125,0,0,1,15,55Zm45-8a1.001,1.001,0,0,1-1,1H27.36383A12.98034,12.98034,0,0,0,8,33.063V29.64893A3.49523,3.49523,0,0,0,10,26.5a3.45816,3.45816,0,0,0-.35724-1.51135l5.06018-4.49811a3.50541,3.50541,0,0,0,3.14026.2384l4.40674,3.47931a3.49788,3.49788,0,1,0,6.46893-.0708l5.78064-4.77533a3.48861,3.48861,0,1,0-1.24731-1.56274l-5.80481,4.79516a3.50163,3.50163,0,0,0-3.95331.04779l-4.0722-3.215a3.4987,3.4987,0,1,0-6.06318-.41724L8.2948,23.51129c-.09564-.05774-.19348-.11169-.2948-.16022V10A1.001,1.001,0,0,1,9,9H59a1.001,1.001,0,0,1,1,1ZM17.56067,18.56067a1.5,1.5,0,1,1,0-2.12134A1.50174,1.50174,0,0,1,17.56067,18.56067Zm9,8a1.5,1.5,0,1,1,0-2.12134A1.50174,1.50174,0,0,1,26.56067,26.56067Zm8.87866-11.12134a1.5,1.5,0,1,1,0,2.12134A1.50163,1.50163,0,0,1,35.43933,15.43933Z"/></g></svg>
