<svg id="Capa_1" enable-background="new 0 0 609.617 609.617" height="512" viewBox="0 0 609.617 609.617" width="512" xmlns="http://www.w3.org/2000/svg"><g><g><g id="图层_x0020_1_23_"><path d="m333.901 591.989c-2.767 5.276-6.933 9.71-12.003 12.803-5.013 3.058-10.869 4.825-17.088 4.825-6.221 0-12.078-1.764-17.093-4.822-4.989-3.045-9.101-7.385-11.863-12.551l-.01.005-.007-.011-.264-.487c-11.556-19.261-24.891-40.448-38.915-62.726-64.631-102.686-143.772-228.423-143.772-317.103 0-58.51 23.726-111.491 62.078-149.843 38.353-38.352 91.335-62.079 149.844-62.079 58.51 0 111.493 23.726 149.845 62.078 38.351 38.352 62.078 91.333 62.078 149.843 0 88.682-79.149 214.43-143.782 317.12-14.077 22.366-27.46 43.626-39.048 62.948zm-24.599-7.842c1.362-.831 2.481-2.031 3.216-3.458l.006.003c.116-.225.241-.449.373-.671 11.872-19.814 25.382-41.274 39.597-63.86 62.929-99.982 139.991-222.416 139.991-304.241 0-51.817-21.013-98.737-54.975-132.7-33.965-33.965-80.885-54.975-132.702-54.975-51.815 0-98.737 21.013-132.7 54.975-33.965 33.965-54.975 80.884-54.975 132.7 0 81.826 77.054 204.246 139.981 304.224 14.054 22.328 27.414 43.557 39.189 63.18.196.285.384.581.559.886l.006.011-.016.01c.089.151.171.306.253.463.733 1.428 1.849 2.627 3.208 3.455 1.267.773 2.806 1.22 4.497 1.22 1.683.002 3.222-.447 4.492-1.222z"/><path d="m304.81 116.261c26.769 0 51.01 10.856 68.556 28.403 17.545 17.545 28.401 41.787 28.401 68.556 0 26.768-10.856 51.01-28.401 68.556-17.547 17.545-41.788 28.401-68.556 28.401-26.769 0-51.011-10.856-68.556-28.401-17.547-17.547-28.403-41.787-28.403-68.556s10.856-51.011 28.403-68.556c17.544-17.547 41.786-28.403 68.556-28.403zm51.413 45.546c-13.159-13.159-31.337-21.299-51.413-21.299s-38.257 8.142-51.413 21.299c-13.157 13.156-21.299 31.337-21.299 51.413s8.141 38.255 21.299 51.413c13.156 13.156 31.337 21.298 51.413 21.298 20.074 0 38.256-8.142 51.413-21.298 13.156-13.157 21.298-31.339 21.298-51.413 0-20.076-8.143-38.258-21.298-51.413z"/></g></g></g></svg>