<svg id="katman_1" enable-background="new 0 0 512 512" viewBox="0 0 512 512" xmlns="http://www.w3.org/2000/svg"><g><path d="m190.8 158.3c6.2 19.1 26.9 51.7 66.2 52.7h.2.2c39.4-1 60-33.7 66.2-52.7 25-21.7 17.8-48 9.2-61v-45.9c0-1.5-.4-2.9-1.2-4.2-27.6-42.1-68.5-41.5-74.3-41.1-5.9-.3-46.7-1-74.4 41.2-.8 1.2-1.2 2.7-1.2 4.2v45.9c-8.7 12.9-15.9 39.3 9.1 60.9zm4.4-54c1-1.3 1.5-2.9 1.5-4.6v-46c24.1-34.8 58.4-32.6 59.8-32.5h1.3c1.5-.1 35.8-2.3 59.9 32.5v46c0 1.7.5 3.3 1.5 4.6.7 1 17.7 23.8-7 43.7-1.2 1-2.1 2.3-2.5 3.8-.5 1.8-12.7 42.8-52.5 44-39.8-1.1-52-42.2-52.5-44-.4-1.5-1.3-2.9-2.5-3.8-24-19.3-8.8-41.3-7-43.7z"/><path d="m400.7 364c-4.6-11.8-16.2-21-30.2-23.9-11-2.5-28.3-5.4-47.8-5.4s-36.7 2.9-47.8 5.4c-15.1 3.2-26.2 12.3-29.7 24.3-1.8 5.6-3.4 11.3-4.8 17.2h-100.2c-1.7 0-3.3.5-4.6 1.5l-27.6 20.8c-1.9 1.4-3 3.7-3 6.1v20.8c0 2.4 1.1 4.6 3 6.1l27.5 20.8c1.3 1 2.9 1.5 4.6 1.5h13.8c1.7 0 3.3-.5 4.6-1.5l9.2-6.9 9.2 6.9c1.3 1 2.9 1.5 4.6 1.5h13.8c1.7 0 3.3-.5 4.6-1.5l9.2-6.9 9.2 6.9c1.3 1 2.9 1.5 4.6 1.5h17.4c1.4 6.6 2.9 12.3 4.2 16.9 3.5 11.8 14.9 21.2 29.7 24.5 11 2.5 28.3 5.4 47.8 5.4 20.1 0 37.4-2.9 48.4-5.4 14.1-3 25.7-12.1 30.3-23.9.1-.2.2-.5.2-.7 4-14.4 8.5-33.8 8.5-55.6s-4.6-41.2-8.5-55.6c0-.3-.1-.6-.2-.8zm-14.3 107.5c-2.9 6.9-10.2 12.4-19.2 14.3-10.3 2.3-26.5 5-45.2 5-18.1 0-34.2-2.7-44.5-5-9.3-2.1-16.6-7.6-18.4-13.9-1.5-5.6-3.5-13.1-5.1-21.7-.7-3.6-3.8-6.2-7.5-6.2h-21.1l-11.7-8.9c-2.7-2-6.5-2-9.2 0l-11.7 8.9h-8.8l-11.7-8.9c-2.7-2-6.4-2-9.2 0l-11.7 8.9h-8.7l-22.5-17v-13.3l22.5-17h103.9c3.6 0 6.8-2.6 7.5-6.1 1.4-7.3 3.3-14.5 5.7-21.7 2-6.7 8.9-12 18.4-14h.1c10.3-2.3 26.4-5 44.5-5s34.2 2.7 44.6 5c9 1.9 16.3 7.3 19.1 14.2 3.7 13.5 7.9 31.3 7.9 51.2s-4.3 37.8-8 51.2z"/><path d="m360.6 376.3h-13.8c-11.8 0-21.4 8.1-21.4 18v52c0 9.9 9.6 18 21.4 18h13.8c4.3 0 14.5 0 14.5-44s-10.2-44-14.5-44zm-3.5 72.9h-10.3c-4 0-6.2-2.1-6.2-2.8v-52c0-.7 2.2-2.8 6.2-2.8h10.3c1.2 4 2.8 13.4 2.8 28.8s-1.6 24.8-2.8 28.8z"/><path d="m414.6 317c-3.2-25.1-8.6-52.8-18-68.6-1.3-2.3-2.9-4.4-4.7-6.3s-3.7-3.7-5.7-5.3c-2.1-1.6-4.3-3.1-6.6-4.4-2.4-1.4-4.8-2.6-7.3-3.7-2.6-1.1-5.2-2.1-7.8-3-2.7-.9-5.4-1.8-8.1-2.6-1.7-.5-3.4-.9-5.1-1.3-1.9-.5-3.9-1-5.8-1.4-1.1-.3-2.3-.6-3.5-.9-2.9-.6-6 .5-7.8 3l-50.1 70.5-18.5-42.9c-1.2-2.8-3.9-4.6-7-4.6s-5.9 1.9-7.1 4.8l-24.7 62s-46.8-88.9-46.8-88.9c-.9-1.7-2.5-3-4.3-3.7-.6-.2-1.3-.3-2-.4-.7 0-1.4.1-2.1.2-.1 0-.2.1-.4.1-.1 0-.1 0-.2 0 0 0-1.7.5-1.7.5-20.1 5-41.4 11.4-51.5 28.4-12.5 21.1-18.1 62.5-20.6 93.4-.4 4.4 3.1 8.2 7.6 8.2 4 0 7.3-3.1 7.6-7 3.3-41.1 9.9-72.2 18.5-86.8 6.5-11 21.9-16.2 38.3-20.4l51.7 98.2c1.3 2.5 3.9 4.1 6.7 4.1h.4c3-.2 5.6-2 6.7-4.8l24-60.3 16.5 38.4c1.1 2.5 3.4 4.3 6.2 4.5 2.7.3 5.4-.9 7-3.1l55.1-77.4c17 4.3 33.2 9.5 39.9 20.8 6.4 10.9 11.8 31.3 15.5 58.6l.1 3.5c.2 4.2 3.6 7.5 7.8 7.5 4.8-.2 8.4-4.3 7.8-8.9z"/></g></svg>