<svg width="24" height="24" viewBox="0 0 24 24" fill="none" xmlns="http://www.w3.org/2000/svg">
<g clip-path="url(#clip0_4482_13050)">
<path d="M12 9.38V8.5" stroke="#000000" stroke-width="1.5" stroke-linecap="round" stroke-linejoin="round"/>
<path d="M12 14.6201V15.5001" stroke="#000000" stroke-width="1.5" stroke-linecap="round" stroke-linejoin="round"/>
<path d="M10.4798 13.9901C10.7098 14.3601 11.0898 14.6201 11.5598 14.6201H12.5198C13.1998 14.6201 13.7498 14.0701 13.7498 13.3901C13.7498 12.8301 13.3698 12.3301 12.8198 12.2001L11.1798 11.7901C10.6398 11.6501 10.2598 11.1601 10.2598 10.6001C10.2598 9.92012 10.8098 9.37012 11.4898 9.37012H12.4498C12.9198 9.37012 13.2998 9.63012 13.5298 9.99012" stroke="#000000" stroke-width="1.5" stroke-linecap="round" stroke-linejoin="round"/>
<path d="M20.9198 6.72957V11.1196C20.9198 15.9996 17.3498 20.5896 12.5198 21.9296C12.1898 22.0196 11.8298 22.0196 11.4898 21.9296C6.62984 20.5896 3.08984 15.9996 3.08984 11.1196V6.72957C3.08984 5.90957 3.70984 4.96957 4.46984 4.67957L10.0398 2.37957C11.2898 1.86957 12.7098 1.86957 13.9598 2.37957L17.8798 3.97957L19.5298 4.66957C20.2898 4.95957 20.9098 5.89957 20.9098 6.71957L20.9198 6.72957Z" stroke="#000000" stroke-width="1.5" stroke-linecap="round" stroke-linejoin="round"/>
</g>
<defs>
<clipPath id="clip0_4482_13050">
<rect width="24" height="24" fill="none"/>
</clipPath>
</defs>
</svg>