<svg viewBox="0 0 64 64" xmlns="http://www.w3.org/2000/svg"><g id="Layer_11" data-name="Layer 11"><path d="m26.71973 29.31885-8.87793-4.84131a1.92 1.92 0 0 0 -1.85059 0l-8.877 4.84131a1.93058 1.93058 0 0 0 -1.00781 1.6958v2.4375a1.91969 1.91969 0 0 0 2.4766 1.84424v6.14111a1.95665 1.95665 0 0 0 1.95508 1.9541h12.75782a1.95644 1.95644 0 0 0 1.9541-1.9541v-6.13916a1.90273 1.90273 0 0 0 .54492.08838 1.93778 1.93778 0 0 0 1.93164-1.93457v-2.4375a1.932 1.932 0 0 0 -1.00683-1.6958zm-10.84864 9.32275 2.0459-.04541v2.81481l-2.01068.00726zm4.0459 2.76221v-2.80762a1.95686 1.95686 0 0 0 -1.9541-1.95459h-2.0918a1.95687 1.95687 0 0 0 -1.9541 1.95459v2.82929l-3.334.012v-7.17248l6.33401-3.454 6.33606 3.4555.04285 7.12506zm5.80957-8.06641-8.331-4.54345a.99715.99715 0 0 0 -.957 0l-8.334 4.54443-.0332-2.26367 8.81348-4.84131 8.84179 4.82178zm31.61231-22.76269h-50.67774a5.16718 5.16718 0 0 0 -5.16113 5.16113v32.52832a5.16718 5.16718 0 0 0 5.16113 5.16113h50.67774a5.16718 5.16718 0 0 0 5.16113-5.16113v-32.52832a5.16718 5.16718 0 0 0 -5.16113-5.16113zm-50.67774 2h50.67774a3.16457 3.16457 0 0 1 3.16113 3.16113v2.83887h-57v-2.83887a3.16457 3.16457 0 0 1 3.16113-3.16113zm50.67774 38.85058h-50.67774a3.16457 3.16457 0 0 1 -3.16113-3.16113v-27.68945h57v27.68945a3.16457 3.16457 0 0 1 -3.16113 3.16113zm-43.81934-35.85547a1 1 0 1 1 1 1.00977 1.0032 1.0032 0 0 1 -1-1.00977zm-4 0a1 1 0 1 1 1 1.00977 1.0032 1.0032 0 0 1 -1-1.00977zm-4 0a1 1 0 1 1 1 1.00977 1.0032 1.0032 0 0 1 -1-1.00977zm52.56347 15.41553a.99974.99974 0 0 1 -1 1h-25.416a1 1 0 0 1 0-2h25.416a.99974.99974 0 0 1 1 1zm-2.666 4a.3751.3751 0 0 1 -.375.375h-2a.375.375 0 0 1 0-.75h2a.3751.3751 0 0 1 .375.375zm-22.375.375a.375.375 0 0 1 0-.75h2a.375.375 0 0 1 0 .75zm12.375-.375a.3751.3751 0 0 1 -.375.375h-2a.375.375 0 0 1 0-.75h2a.3751.3751 0 0 1 .375.375zm5 0a.3751.3751 0 0 1 -.375.375h-2a.375.375 0 0 1 0-.75h2a.3751.3751 0 0 1 .375.375zm-12.375.375a.375.375 0 0 1 0-.75h2a.375.375 0 0 1 0 .75zm20.041-8.56152a.99974.99974 0 0 1 -1 1h-25.416a1 1 0 0 1 0-2h25.416a.99974.99974 0 0 1 1 1zm-12.708 12.186a.99974.99974 0 0 1 -1 1h-12.708a1 1 0 0 1 0-2h12.708a.99974.99974 0 0 1 1 1.00003zm0 4a.99974.99974 0 0 1 -1 1h-12.708a1 1 0 0 1 0-2h12.708a.99974.99974 0 0 1 1 1.00003z"/></g></svg>