<svg id="Layer_1" enable-background="new 0 0 450 450" viewBox="0 0 450 450" xmlns="http://www.w3.org/2000/svg"><g><path d="m286.4 330.1c-.3 0-.6 0-.9-.1-1.5-.3-2.7-1.1-3.5-2.4l-33-57.7c-1.4-2.4-.5-5.5 1.9-6.8 2.4-1.4 5.5-.5 6.8 1.9l30.2 52.5 18.3-15.4-30.7-31.3c-1.9-2-1.9-5.1.1-7.1s5.1-1.9 7.1.1l34.5 35.2c1 1 1.5 2.4 1.4 3.8s-.7 2.7-1.8 3.6l-27 22.7c-1.1.6-2.2 1-3.4 1z"/></g><g><path d="m226.1 432.3c-2.8 0-5-2.2-5-5v-89.8c0-2.8 2.2-5 5-5s5 2.2 5 5v89.8c0 2.8-2.2 5-5 5z"/></g><g><path d="m279 272.3c-2.8 0-5-2.2-5-5v-31.1c0-2.8 2.2-5 5-5s5 2.2 5 5v31.1c0 2.7-2.2 5-5 5z"/></g><g><path d="m347.9 272.3c-2.8 0-5-2.2-5-5v-29.5c0-2.8 2.2-5 5-5s5 2.2 5 5v29.5c0 2.7-2.2 5-5 5z"/></g><g><path d="m314.4 254.5c-.1 0-.1 0 0 0-30.8 0-64.4-24.7-65.6-78.7-.1-2.8 2.1-5.1 4.9-5.1h.1c2.7 0 4.9 2.2 5 4.9 1 47.3 29.5 68.9 55.5 68.9h.1c26 0 54.4-21.4 55.6-68.6.1-2.7 2.3-4.9 5-4.9h.1c2.8.1 4.9 2.4 4.9 5.1-1.4 53.9-34.9 78.4-65.6 78.4z"/></g><g><path d="m374.9 181.2c-.4 0-.8 0-1.2-.1-2.2-.5-3.8-2.5-3.8-4.7-.9-31.8-8.6-44.5-12.3-48.8-29.7 17-53.8 7.9-69.9 1.8-11-4.1-15.1-5.2-17.5-2.9 0 26.7-11.4 50.3-11.9 51.3-.8 1.6-2.3 2.6-4.1 2.8-1.8.1-3.5-.6-4.5-2.1-18-24.8-19.3-52.3-3.7-77.5 18.4-29.7 56.9-48.9 87.8-43.8 21.6 3.6 36.7 18.4 42.6 41.7 32 25.2 4.1 77.4 2.9 79.6-.9 1.7-2.6 2.7-4.4 2.7zm-51.3-114.8c-25.2 0-54.6 16.5-69.1 39.9-11.7 18.9-12.2 39.4-1.7 58.5 3.3-9.1 7.6-24.2 7.3-39.9 0-1 .3-2 .8-2.8 7-10.8 18.8-6.4 30.2-2 16.6 6.3 37.3 14.1 64.4-2.9 1.5-1 3.5-1 5.1-.1 1.5.9 12.9 8.1 17.5 37.9 4.7-15.7 7.1-37.3-9.1-49-1-.7-1.7-1.8-2-2.9-4.7-20.4-16.8-32.8-34.9-35.8-2.7-.6-5.6-.9-8.5-.9z"/></g><g><path d="m400.8 432.3c-2.8 0-5-2.2-5-5v-89.8c0-2.8 2.2-5 5-5s5 2.2 5 5v89.8c0 2.8-2.3 5-5 5z"/></g><g><path d="m340.5 330.1c-1.2 0-2.3-.4-3.2-1.2l-27-22.7c-1.1-.9-1.7-2.2-1.8-3.6s.5-2.8 1.4-3.8l34.5-35.2c1.9-2 5.1-2 7.1-.1s2 5.1.1 7.1l-30.7 31.3 18.3 15.4 30.2-52.5c1.4-2.4 4.4-3.2 6.8-1.9 2.4 1.4 3.2 4.4 1.9 6.8l-33.1 57.7c-.7 1.3-2 2.2-3.5 2.4-.4.3-.7.3-1 .3z"/></g><g><path d="m324.2 344.8h-21.5c-2.3 0-4.4-1.6-4.9-3.9l-5.4-23.8c-.6-2.7 1.1-5.4 3.8-6s5.4 1.1 6 3.8l4.5 19.9h13.5l4.5-19.9c.6-2.7 3.3-4.4 6-3.8s4.4 3.3 3.8 6l-5.4 23.8c-.5 2.2-2.5 3.9-4.9 3.9z"/></g><g><path d="m291.3 432.3c-.2 0-.4 0-.6 0-2.7-.4-4.7-2.9-4.3-5.6l11.5-87.5c.4-2.7 2.9-4.7 5.6-4.3s4.7 2.9 4.3 5.6l-11.5 87.5c-.4 2.5-2.6 4.3-5 4.3z"/></g><g><path d="m335.7 432.3c-2.5 0-4.6-1.8-5-4.4l-11.5-87.5c-.4-2.7 1.6-5.3 4.3-5.6 2.7-.4 5.3 1.6 5.6 4.3l11.5 87.5c.4 2.7-1.6 5.3-4.3 5.6-.2.1-.4.1-.6.1z"/></g><g><path d="m440.3 432.3c-2.8 0-5-2.2-5-5v-89.1c0-36.4-29.6-66-66-66h-21.4c-2.8 0-5-2.2-5-5s2.2-5 5-5h21.4c41.9 0 76 34.1 76 76v89.1c0 2.8-2.2 5-5 5zm-253.7 0c-2.8 0-5-2.2-5-5v-89.1c0-41.9 34.1-76 76-76h21.4c2.8 0 5 2.2 5 5s-2.2 5-5 5h-21.4c-36.4 0-66 29.6-66 66v89.1c0 2.8-2.2 5-5 5z"/></g><g><path d="m440.3 432.3h-253.7c-2.8 0-5-2.2-5-5s2.2-5 5-5h253.7c2.8 0 5 2.2 5 5s-2.2 5-5 5z"/></g><g><path d="m195.8 250.4h-37.1c-2.8 0-5-2.2-5-5v-76.6c0-2.8 2.2-5 5-5h37.1c2.8 0 5 2.2 5 5v76.6c0 2.7-2.2 5-5 5zm-32.1-10h27.1v-66.6h-27.1z"/></g><g><path d="m132.2 250.4h-37.2c-2.8 0-5-2.2-5-5v-102c0-2.8 2.2-5 5-5h37.1c2.8 0 5 2.2 5 5v102c.1 2.7-2.2 5-4.9 5zm-32.2-10h27.1v-92h-27.1z"/></g><g><path d="m68.5 250.4h-37.1c-2.8 0-5-2.2-5-5v-135.7c0-2.8 2.2-5 5-5h37.1c2.8 0 5 2.2 5 5v135.7c0 2.7-2.2 5-5 5zm-32.1-10h27.1v-125.7h-27.1z"/></g><g><path d="m94.9 432.3h-25.5c-2.8 0-5-2.2-5-5v-11.3c-4.4-1.3-8.6-3-12.6-5.2l-8 8c-2 2-5.1 2-7.1 0l-18-18c-.9-.9-1.5-2.2-1.5-3.5s.5-2.6 1.5-3.5l8-8c-2.2-4-4-8.3-5.2-12.6h-11.3c-2.8 0-5-2.2-5-5v-25.4c0-2.8 2.2-5 5-5h11.3c1.3-4.4 3-8.6 5.2-12.6l-8-8c-.9-.9-1.5-2.2-1.5-3.5s.5-2.6 1.5-3.5l18-18c.9-.9 2.2-1.5 3.5-1.5s2.6.5 3.5 1.5l8 8c4-2.2 8.3-4 12.6-5.2v-11.3c0-2.8 2.2-5 5-5h25.4c2.8 0 5 2.2 5 5v11.3c4.4 1.3 8.6 3 12.6 5.2l8-8c.9-.9 2.2-1.5 3.5-1.5s2.6.5 3.5 1.5l18 18c.9.9 1.5 2.2 1.5 3.5s-.5 2.6-1.5 3.5l-8 8c2.2 4 4 8.3 5.2 12.6h11.3c2.8 0 5 2.2 5 5v25.4c0 2.8-2.2 5-5 5h-11.3c-1.3 4.4-3 8.6-5.2 12.6l8 8c1.9 2 1.9 5.1 0 7.1l-18 18c-1.9 2-5.1 2-7.1 0l-8-8c-4 2.2-8.3 4-12.6 5.2v11.3c.3 2.7-2 4.9-4.7 4.9zm-20.5-10h15.4v-10.1c0-2.3 1.6-4.4 3.9-4.9 6-1.3 11.7-3.7 16.8-7 2-1.3 4.6-1 6.2.7l7.2 7.2 10.9-10.9-7.2-7.2c-1.7-1.7-1.9-4.2-.7-6.2 3.3-5.2 5.6-10.9 7-16.8.5-2.3 2.5-3.9 4.9-3.9h10.1v-15.4h-9.9c-2.3 0-4.4-1.6-4.9-3.9-1.3-6-3.7-11.6-7-16.9-1.3-2-1-4.6.7-6.2l7.2-7.2-11-11-7.2 7.2c-1.7 1.7-4.2 1.9-6.2.7-5.2-3.3-10.9-5.6-16.8-7-2.3-.5-3.9-2.5-3.9-4.9v-10.1h-15.5v10.1c0 2.3-1.6 4.4-3.9 4.9-6 1.3-11.7 3.7-16.8 7-2 1.3-4.6 1-6.2-.7l-7.2-7.2-10.9 10.9 7.2 7.2c1.7 1.7 1.9 4.2.7 6.2-3.3 5.2-5.7 10.9-7 16.9-.5 2.3-2.5 3.9-4.9 3.9h-10.2v15.4h10.1c2.3 0 4.4 1.6 4.9 3.9 1.3 6 3.7 11.6 7 16.8 1.3 2 1 4.6-.7 6.2l-7.2 7.2 10.9 10.9 7.2-7.2c1.7-1.7 4.2-1.9 6.2-.7 5.2 3.3 10.9 5.6 16.8 7 2.3.5 3.9 2.5 3.9 4.9v10.2z"/></g><g><path d="m82.2 396c-22.4 0-40.7-18.2-40.7-40.7s18.2-40.7 40.7-40.7c22.4 0 40.7 18.2 40.7 40.7s-18.3 40.7-40.7 40.7zm0-71.3c-16.9 0-30.7 13.8-30.7 30.7s13.8 30.7 30.7 30.7 30.7-13.8 30.7-30.7-13.8-30.7-30.7-30.7z"/></g><g><path d="m174.8 136.9c-32.5 0-58.9-26.4-58.9-58.9s26.4-58.9 58.9-58.9 58.9 26.4 58.9 58.9-26.4 58.9-58.9 58.9zm0-107.7c-26.9 0-48.9 21.9-48.9 48.9s21.9 48.9 48.9 48.9 48.9-21.9 48.9-48.9-21.9-48.9-48.9-48.9z"/></g><g><path d="m175.4 56.2c-2.8 0-5-2.2-5-5v-9.5c0-2.8 2.2-5 5-5s5 2.2 5 5v9.5c0 2.8-2.2 5-5 5z"/></g><g><path d="m174.2 119.4c-2.8 0-5-2.2-5-5v-9.6c0-2.8 2.2-5 5-5s5 2.2 5 5v9.6c0 2.8-2.2 5-5 5z"/></g><g><path d="m173.5 109.9c-.3 0-.7 0-1 0-7.6-.4-16.5-5.5-16.4-18.7 0-2.7 2.3-4.9 5-4.9h.1c2.8 0 5 2.3 4.9 5.1-.1 5.5 2.3 8.4 6.9 8.7 4.8.3 9.8-2.8 10.1-6.2 0-.1 0-.1 0-.2.9-6.7-8.9-10.6-10.8-11.3-12.7-4.6-17.9-11.6-15.5-20.8 3.1-12 13.2-16.2 21.3-15 9.5 1.4 15.8 9.2 15.5 18.9-.1 2.8-2.4 4.9-5.2 4.8s-4.9-2.4-4.8-5.2c.2-5.6-3.6-8.2-6.9-8.7-3.6-.5-8.4 1.1-10.1 7.6-.5 1.8-1.3 5.1 9.2 8.9 4.5 1.6 19.1 8.1 17.3 21.9-1 9.2-10.7 15.1-19.6 15.1z"/></g></svg>