<svg width="24" height="24" viewBox="0 0 24 24" fill="none" xmlns="http://www.w3.org/2000/svg">
<g clip-path="url(#clip0_4482_125)">
<path d="M12.0096 9.94996C13.7328 9.94996 15.1296 8.55309 15.1296 6.82996C15.1296 5.10683 13.7328 3.70996 12.0096 3.70996C10.2865 3.70996 8.88965 5.10683 8.88965 6.82996C8.88965 8.55309 10.2865 9.94996 12.0096 9.94996Z" stroke="#000000" stroke-width="1.5"/>
<path d="M5.14039 11.77C6.10137 11.77 6.88039 10.991 6.88039 10.03C6.88039 9.06906 6.10137 8.29004 5.14039 8.29004C4.17941 8.29004 3.40039 9.06906 3.40039 10.03C3.40039 10.991 4.17941 11.77 5.14039 11.77Z" stroke="#000000" stroke-width="1.5"/>
<path d="M18.8904 11.77C19.8514 11.77 20.6304 10.991 20.6304 10.03C20.6304 9.06906 19.8514 8.29004 18.8904 8.29004C17.9294 8.29004 17.1504 9.06906 17.1504 10.03C17.1504 10.991 17.9294 11.77 18.8904 11.77Z" stroke="#000000" stroke-width="1.5"/>
<path d="M5.07999 20.29C5.10999 19.84 5.15999 19.4 5.24999 18.98C5.97999 15.26 8.72999 12.5 12.01 12.5C15.21 12.5 17.91 15.12 18.72 18.7C18.83 19.21 18.91 19.74 18.94 20.29" stroke="#000000" stroke-width="1.5" stroke-linecap="round"/>
<path d="M2.32999 16.54C2.43999 15 3.72999 13.79 5.29999 13.79C6.07999 13.79 6.79999 14.09 7.32999 14.59" stroke="#000000" stroke-width="1.5" stroke-linecap="round"/>
<path d="M22 16.54C21.89 15 20.6 13.79 19.03 13.79C18.25 13.79 17.53 14.09 17 14.59" stroke="#000000" stroke-width="1.5" stroke-linecap="round"/>
</g>
<defs>
<clipPath id="clip0_4482_125">
<rect width="24" height="24" fill="none"/>
</clipPath>
</defs>
</svg>