<?xml version="1.0"?>
<svg xmlns="http://www.w3.org/2000/svg" data-name="Layer 1" id="Layer_1" viewBox="0 0 64 64"><title/><path d="M20,11.877V31a1,1,0,0,0,1,1H43a1,1,0,0,0,1-1V11.877l2.629,1.052.742-1.858L42,8.923V5a1,1,0,0,0-1-1H37a1,1,0,0,0-1,1V6.523L32.371,5.071a1.011,1.011,0,0,0-.742,0l-15,6,.742,1.858ZM38,6h2V8.123l-2-.8ZM22,11.077l10-4,10,4V30H22Z"/><path d="M33,16.089V15.62H31v.469A2.533,2.533,0,0,0,29,18.5,2.591,2.591,0,0,0,31.667,21h.666c.361,0,.667.229.667.5s-.306.5-.667.5h-.666c-.361,0-.667-.229-.667-.5v-.3H29v.3a2.533,2.533,0,0,0,2,2.411v.469h2v-.469A2.533,2.533,0,0,0,35,21.5,2.591,2.591,0,0,0,32.333,19h-.666c-.361,0-.667-.229-.667-.5s.306-.5.667-.5h.666c.361,0,.667.229.667.5v.3h2v-.3A2.533,2.533,0,0,0,33,16.089Z"/><path d="M32,12a8,8,0,1,0,8,8A8.009,8.009,0,0,0,32,12Zm0,14a6,6,0,1,1,6-6A6.006,6.006,0,0,1,32,26Z"/><path d="M48.265,39.141h-6.6l-1.728-4.5A1,1,0,0,0,39,34H35a1,1,0,0,0-.914,1.406l3.972,8.933a1,1,0,0,0,.708.573l7.982,1.679L43.012,60.745A1,1,0,0,0,43.979,62H61a1,1,0,0,0,1-1V42.979a3.924,3.924,0,0,0-4-3.838h-.268a7,7,0,1,0-9.47,0Zm9.738,2a1.924,1.924,0,0,1,2,1.838V60H45.276L48.95,46.085a1,1,0,0,0-.761-1.234L39.678,43.06,36.539,36h1.774l1.728,4.5a1,1,0,0,0,.934.642ZM53,29a5,5,0,1,1-5,5A5.006,5.006,0,0,1,53,29Z"/><path d="M3,62H20.021a1,1,0,0,0,.967-1.255L17.252,46.591l7.982-1.679a1,1,0,0,0,.708-.573l3.972-8.933A1,1,0,0,0,29,34H25a1,1,0,0,0-.934.642l-1.728,4.5h-6.6a7,7,0,1,0-9.47,0H6a3.924,3.924,0,0,0-4,3.838V61A1,1,0,0,0,3,62ZM6,34a5,5,0,1,1,5,5A5.006,5.006,0,0,1,6,34ZM4,42.979a1.924,1.924,0,0,1,2-1.838H23.025a1,1,0,0,0,.934-.642L25.688,36h1.773l-3.139,7.06-8.511,1.791a1,1,0,0,0-.761,1.234L18.724,60H4Z"/></svg>
