<svg width="83" height="174" viewBox="0 0 83 174" fill="none" xmlns="http://www.w3.org/2000/svg">
<path d="M56.4317 111.331C59.8258 116.447 53.6739 105.76 68.9324 132.123L62.9718 135.397L49.7608 112.175C49.7608 112.175 56.1424 110.895 56.4317 111.331Z" fill="#ED9DA0"/>
<path d="M65.8243 133.527C65.8243 133.527 65.7919 128.827 69.3154 130.595L76.3616 134.132C76.3616 134.132 84.2486 132.235 81.963 136.747C79.6773 141.259 68.8824 142.701 68.8824 142.701C68.8824 142.701 60.666 143.503 60.9239 141.456C61.1818 139.409 60.7755 132.737 61.9125 133.611C63.0494 134.484 65.8243 133.527 65.8243 133.527Z" fill="#090814"/>
<path d="M40.1291 134.955C37.9602 140.507 42.9374 129.77 30.697 156.331L25.4375 152.415L36.3293 129.231C36.3293 129.231 40.314 134.482 40.1291 134.955Z" fill="#ED9DA0"/>
<path d="M67.191 19.7124C66.9811 20.3013 66.6577 20.8318 66.2439 21.2664C65.83 21.701 65.3357 22.0293 64.7957 22.228C64.2557 22.4267 63.6831 22.4911 63.1184 22.4166C62.5536 22.3421 62.0104 22.1306 61.5269 21.7969L35.7774 41.7845L35.0664 33.8192L60.3842 15.5421C60.9412 14.6741 61.7646 14.064 62.6983 13.8273C63.6321 13.5906 64.6113 13.7439 65.4504 14.258C66.2895 14.7722 66.9302 15.6115 67.251 16.6168C67.5718 17.6222 67.5505 18.7237 67.191 19.7127V19.7124Z" fill="#FFB6B6"/>
<path d="M9.53951 32.315C9.53951 32.315 6.75135 36.9054 11.1266 40.9679C15.5018 45.0303 33.2352 44.2221 36.0971 44.1872C38.959 44.1523 52.0892 29.0176 52.0892 29.0176L52.0041 20.2764L36.151 30.7577L9.53951 32.315Z" fill="#52D689"/>
<path d="M7.95969 62.7925L8.24065 68.7413C8.24065 68.7413 7.41129 74.0108 8.09341 75.148C8.77048 76.2794 27.3605 77.9626 27.3605 77.9626C27.3605 77.9626 26.7769 69.0907 27.8291 62.6733L7.95969 62.7925Z" fill="#ED9DA0"/>
<path d="M65.0141 123.361L57.8581 130.341L43.833 98.3802C29.9251 101.046 16.8042 101.898 5.45526 98.6758C1.61277 97.5991 -0.736027 93.1772 0.20901 88.802C0.253229 88.5974 0.304338 88.395 0.362352 88.1948C1.72048 83.5772 5.27591 80.3099 8.07732 75.2314L28.5384 75.5776L26.253 84.3638L46.1295 81.4978C50.1267 80.9213 53.7774 84.1454 54.2833 88.6982C54.31 88.9387 54.3277 89.1801 54.3364 89.4225L65.0141 123.361Z" fill="#090814"/>
<path d="M15.9488 22.759C20.5373 22.759 24.257 18.6143 24.257 13.5016C24.257 8.38883 20.5373 4.24414 15.9488 4.24414C11.3603 4.24414 7.64062 8.38883 7.64062 13.5016C7.64062 18.6143 11.3603 22.759 15.9488 22.759Z" fill="#ED9DA0"/>
<path d="M11.077 26.1016L18.6949 27.1002C19.0161 27.1423 19.3176 27.295 19.5572 27.5371C19.7968 27.7792 19.9628 28.0985 20.0318 28.4506L21.2432 34.6291L28.7953 44.5387C28.7953 44.5387 31.5073 50.2043 30.4904 56.6255C29.8784 60.4922 28.8197 64.2543 27.3406 67.8181C27.3406 67.8181 8.76883 76.2817 8.09017 75.1495C7.4115 74.0173 7.19209 68.8693 7.19209 68.8693L4.80296 39.2473C4.6662 37.6867 4.84105 36.1117 5.31498 34.6353C5.7889 33.1589 6.55016 31.8176 7.54415 30.7077C8.14694 30.0469 8.74203 29.5843 9.22622 29.5843C10.3201 29.542 10.18 26.7998 11.077 26.1016Z" fill="#52D689"/>
<path d="M35.8954 148.622L28.6328 145.55L38.6008 112.191C25.0588 107.767 14.844 100.641 5.92509 92.1826C2.90055 89.3322 0.630283 85.6718 3.20725 82.2045C3.3277 82.0423 3.45345 81.8855 3.58452 81.7341C6.62737 78.2532 14.3498 78.9231 18.8707 75.7354L28.9806 87.7631L28.347 90.9853L47.3282 98.1548C51.1454 99.5965 53.1509 104.281 51.8077 108.618C51.7369 108.847 51.6573 109.072 51.5689 109.294L35.8954 148.622Z" fill="#090814"/>
<path d="M15.4226 98.5193C14.9461 98.1734 14.5435 97.7152 14.2431 97.1771C13.9426 96.6391 13.7518 96.0341 13.6839 95.405C13.616 94.7758 13.6727 94.1377 13.8501 93.5356C14.0275 92.9335 14.3212 92.3821 14.7105 91.9201L2.22656 59.8389L9.3743 60.6397L20.4394 91.911C21.0925 92.6912 21.4661 93.7113 21.4894 94.7779C21.5126 95.8445 21.1839 96.8836 20.5655 97.6982C19.9471 98.5129 19.0819 99.0464 18.1341 99.1977C17.1862 99.349 16.2214 99.1077 15.4226 98.5193Z" fill="#ED9DA0"/>
<path d="M15.7534 33.0577C15.7534 33.0577 12.2672 29.1034 7.82723 33.0778C3.38726 37.0521 0.586634 56.5798 0.0507061 59.7134C-0.485222 62.847 10.2286 80.1834 10.2286 80.1834L17.9348 81.8203L11.8539 62.4304L15.7534 33.0577Z" fill="#52D689"/>
<path d="M11.5451 26.5784L11.4788 25.8551L12.3672 20.8754L18.8059 21.3307L18.9849 27.8308L11.5451 26.5784Z" fill="#ED9DA0"/>
<path d="M24.1708 12.8356C23.5847 9.6414 23.3037 8.00513 21.1727 5.74539C20.6673 5.8252 21.3054 8.74596 18.5196 12.8146C14.4689 18.7291 14.8727 13.3062 13.6748 15.1282C13.4148 15.5237 13.3585 16.9507 13.444 17.4417C13.7817 19.3816 15.7787 17.4875 13.6748 24.1254C13.3615 24.6416 12.9924 24.5162 12.5212 24.5097C12.4849 24.5097 12.7237 24.4586 11.829 24.2525C11.4022 24.1544 10.8044 24.0382 10.0881 23.9037C1.76527 22.3413 -1.17358 10.64 5.25941 4.55225C6.72313 3.16726 8.15953 2.1175 9.40675 1.63091C13.1641 0.167282 21.7222 1.11889 23.3647 5.87398C24.1386 8.08665 24.415 10.4766 24.17 12.8356H24.1708Z" fill="#090814" stroke="black" stroke-width="2"/>
<path d="M7.02955 31.6186C10.3078 31.6186 12.9653 28.6574 12.9653 25.0046C12.9653 21.3518 10.3078 18.3906 7.02955 18.3906C3.7513 18.3906 1.09375 21.3518 1.09375 25.0046C1.09375 28.6574 3.7513 31.6186 7.02955 31.6186Z" fill="#090814" stroke="black" stroke-width="2"/>
<path d="M14.8893 23.3449C15.7715 23.3449 16.6176 22.9544 17.2414 22.2593C17.8652 21.5642 18.2156 20.6215 18.2156 19.6385C18.2156 18.6555 17.8652 17.7128 17.2414 17.0177C16.6176 16.3226 15.7715 15.9321 14.8893 15.9321V16.4267C15.6028 16.4274 16.2906 16.7231 16.8196 17.2565C17.3485 17.79 17.6809 18.5233 17.7524 19.3143C17.8239 20.1052 17.6293 20.8976 17.2064 21.5379C16.7835 22.1781 16.1623 22.6207 15.4633 22.7798C14.7643 22.9388 14.0371 22.8032 13.4227 22.399C12.8084 21.9948 12.3505 21.3509 12.1379 20.5921C11.9252 19.8333 11.9729 19.0135 12.2718 18.2916C12.5706 17.5697 13.0993 16.9971 13.7554 16.6848L13.5805 16.2301C12.876 16.566 12.2971 17.1627 11.9418 17.9192C11.5864 18.6757 11.4764 19.5457 11.6302 20.3822C11.7841 21.2187 12.1924 21.9704 12.7861 22.5102C13.3799 23.05 14.1227 23.3448 14.889 23.3449H14.8893Z" fill="#27AE60"/>
<path d="M28.1813 154.139C28.1813 154.139 31.6448 151.873 32.0125 155.951L32.7484 164.108C32.7484 164.108 37.9053 170.452 33.4786 170.499C29.0518 170.546 22.8477 161.314 22.8477 161.314C22.8477 161.314 18.3439 154.146 19.9812 153.409C21.6185 152.672 26.3628 149.123 26.2572 150.583C26.1516 152.044 28.1813 154.139 28.1813 154.139Z" fill="#090814"/>
</svg>
