<svg width="86" height="100" viewBox="0 0 86 100" fill="none" xmlns="http://www.w3.org/2000/svg">
<path d="M75.6444 46.1627C75.6444 37.9627 76.5444 31.1626 70.7444 24.5626C68.8444 22.4626 66.7445 21.1627 64.3445 19.6627C60.3445 17.1627 55.9445 14.4626 51.8445 12.3626C45.9445 9.26265 39.7444 9.16265 33.8444 12.3626C29.3444 14.7626 24.3444 17.6626 20.0444 20.2626C13.8444 24.0626 10.3444 29.3626 10.0444 36.7626C10.0444 51.0626 9.94444 65.4626 10.0444 79.7626C10.8444 85.8626 16.4444 90.9626 22.8444 89.7626C24.6444 89.3626 26.6444 88.0626 28.3444 87.0626C35.6444 82.9626 42.7444 78.5626 49.9444 74.2626C51.2444 73.1626 52.0445 71.7627 52.1445 69.9627V45.1627C51.9445 41.4627 48.3445 39.5627 45.3445 38.1627C43.2445 37.1627 42.4444 37.3626 40.3444 38.3626C37.1444 39.9626 33.2444 41.8627 33.3444 45.9627V69.3626C33.3444 70.3626 32.8444 71.9627 32.0444 72.6627C31.3444 73.3627 26.8444 75.9626 25.8444 76.3626C25.6444 76.3626 25.3444 76.5626 25.1445 76.5626C24.9445 72.6626 24.9444 68.7627 24.9444 64.9627C24.9444 56.1627 24.9444 47.3626 24.9444 38.5626C25.2444 33.8626 28.8444 32.6627 32.2444 30.6627C35.4444 28.7627 39.4444 25.6627 43.2444 25.6627C44.8444 25.6627 46.7444 26.7626 48.1445 27.5626C51.1445 29.1626 54.6444 31.1627 57.4444 32.9627C59.7444 34.4627 60.7444 36.5626 60.9444 39.2626V76.7626C60.9444 79.4626 63.5445 81.4627 66.1445 81.1627C67.6445 80.9627 71.9444 78.3627 73.4444 77.4627C74.7444 76.6627 75.4445 76.4626 75.6444 74.7626C75.8444 65.2626 75.6444 55.6626 75.6444 46.0626M46.4444 54.6627C47.4444 54.6627 48.2444 55.4627 48.2444 56.4627C48.2444 57.4627 47.4444 58.2626 46.4444 58.2626C45.4444 58.2626 44.6445 57.4627 44.6445 56.4627C44.6445 55.4627 45.4444 54.6627 46.4444 54.6627Z" fill="#27AE60"/>
</svg>
