<svg width="600" height="600" viewBox="0 0 600 600" fill="none" xmlns="http://www.w3.org/2000/svg">
<rect width="600" height="600" fill="white"/>
<path d="M300 436C439.176 436 552 425.341 552 412.193C552 399.045 439.176 388.387 300 388.387C160.824 388.387 48 399.045 48 412.193C48 425.341 160.824 436 300 436Z" fill="#EBEBEB"/>
<path d="M439.719 409.899H307.224L301.312 270.81H439.719V409.899Z" fill="#DBDBDB"/>
<path d="M439.719 270.81L487.315 199.655L525.191 270.81L519.279 409.899H439.719V270.81Z" fill="#C7C7C7"/>
<path d="M347.558 177.061H488.995L540.009 276.436H523.583L488.995 207.642L449.104 284.643H289.634L347.558 177.061Z" fill="#A6A6A6"/>
<path d="M363.947 208.502H333.535L317.312 231.713H352.418L363.947 208.502Z" fill="#C7C7C7"/>
<path d="M340.91 227.742V256.005H323.985V227.742L332.447 215.1L340.91 227.742Z" fill="#DBDBDB"/>
<path d="M340.906 227.719H354.209L340.906 256.005V227.719Z" fill="#C7C7C7"/>
<path d="M336.823 228.183H327.197V247.576H336.823V228.183Z" fill="#FBFAFF"/>
<path d="M331.484 229.529H328.38V235.773H331.484V229.529Z" fill="#EBEBEB"/>
<path d="M335.624 229.529H332.52V235.773H335.624V229.529Z" fill="#EBEBEB"/>
<path d="M331.484 236.898H328.38V246.143H331.484V236.898Z" fill="#EBEBEB"/>
<path d="M335.624 236.898H332.52V246.143H335.624V236.898Z" fill="#EBEBEB"/>
<path d="M438.407 208.502H407.995L392.77 231.713H426.804L438.407 208.502Z" fill="#C7C7C7"/>
<path d="M415.368 227.742V256.005H398.443V227.742L406.905 215.1L415.368 227.742Z" fill="#DBDBDB"/>
<path d="M415.368 227.719H428.689L415.368 256.005V227.719Z" fill="#C7C7C7"/>
<path d="M411.285 228.183H401.658V247.576H411.285V228.183Z" fill="#FBFAFF"/>
<path d="M405.946 229.529H402.842V235.773H405.946V229.529Z" fill="#EBEBEB"/>
<path d="M410.103 229.529H406.999V235.773H410.103V229.529Z" fill="#EBEBEB"/>
<path d="M405.946 236.898H402.842V246.143H405.946V236.898Z" fill="#EBEBEB"/>
<path d="M410.103 236.898H406.999V246.143H410.103V236.898Z" fill="#EBEBEB"/>
<path d="M463.63 173.046H446.706V199.655H463.63V173.046Z" fill="#DBDBDB"/>
<path d="M463.63 173.046H476.933V177.327L463.63 199.655V173.046Z" fill="#C7C7C7"/>
<path d="M463.628 164H444.8V173.046H463.628V164Z" fill="#C7C7C7"/>
<path d="M478.393 164H463.63V173.046H478.393V164Z" fill="#A6A6A6"/>
<path d="M342.184 296.028H321.232V338.28H342.184V296.028Z" fill="#FBFAFF"/>
<path d="M330.559 298.963H323.815V312.576H330.559V298.963Z" fill="#EBEBEB"/>
<path d="M339.596 298.963H332.852V312.576H339.596V298.963Z" fill="#EBEBEB"/>
<path d="M330.559 315.026H323.815V335.192H330.559V315.026Z" fill="#EBEBEB"/>
<path d="M339.596 315.026H332.852V335.192H339.596V315.026Z" fill="#EBEBEB"/>
<path d="M420.005 296.028H399.053V338.28H420.005V296.028Z" fill="#FBFAFF"/>
<path d="M408.384 298.963H401.64V312.576H408.384V298.963Z" fill="#EBEBEB"/>
<path d="M417.42 298.963H410.677V312.576H417.42V298.963Z" fill="#EBEBEB"/>
<path d="M408.384 315.026H401.64V335.192H408.384V315.026Z" fill="#EBEBEB"/>
<path d="M417.42 315.026H410.677V335.192H417.42V315.026Z" fill="#EBEBEB"/>
<path d="M342.184 354.74H321.232V396.992H342.184V354.74Z" fill="#FBFAFF"/>
<path d="M330.559 357.673H323.815V371.287H330.559V357.673Z" fill="#EBEBEB"/>
<path d="M339.596 357.673H332.852V371.287H339.596V357.673Z" fill="#EBEBEB"/>
<path d="M330.559 373.736H323.815V393.902H330.559V373.736Z" fill="#EBEBEB"/>
<path d="M339.596 373.736H332.852V393.902H339.596V373.736Z" fill="#EBEBEB"/>
<path d="M420.005 354.74H399.053V396.992H420.005V354.74Z" fill="#FBFAFF"/>
<path d="M408.384 357.673H401.64V371.287H408.384V357.673Z" fill="#EBEBEB"/>
<path d="M417.42 357.673H410.677V371.287H417.42V357.673Z" fill="#EBEBEB"/>
<path d="M408.384 373.736H401.64V393.902H408.384V373.736Z" fill="#EBEBEB"/>
<path d="M417.42 373.736H410.677V393.902H417.42V373.736Z" fill="#EBEBEB"/>
<path d="M380.985 296.028H360.032V338.28H380.985V296.028Z" fill="#FBFAFF"/>
<path d="M369.36 298.963H362.616V312.576H369.36V298.963Z" fill="#EBEBEB"/>
<path d="M378.414 298.963H371.67V312.576H378.414V298.963Z" fill="#EBEBEB"/>
<path d="M369.36 315.026H362.616V335.192H369.36V315.026Z" fill="#EBEBEB"/>
<path d="M378.414 315.026H371.67V335.192H378.414V315.026Z" fill="#EBEBEB"/>
<path d="M380.985 355.026H360.032V397.278H380.985V355.026Z" fill="#FBFAFF"/>
<path d="M369.36 357.939H362.616V371.552H369.36V357.939Z" fill="#EBEBEB"/>
<path d="M378.414 357.939H371.67V371.552H378.414V357.939Z" fill="#EBEBEB"/>
<path d="M369.36 374.023H362.616V394.189H369.36V374.023Z" fill="#EBEBEB"/>
<path d="M378.414 374.023H371.67V394.189H378.414V374.023Z" fill="#EBEBEB"/>
<path d="M477.376 338.281H498.328V296.029H477.376V338.281Z" fill="#FBFAFF"/>
<path d="M495.74 298.963H488.996V312.576H495.74V298.963Z" fill="#EBEBEB"/>
<path d="M486.686 298.963H479.942V312.576H486.686V298.963Z" fill="#EBEBEB"/>
<path d="M495.74 315.026H488.996V335.192H495.74V315.026Z" fill="#EBEBEB"/>
<path d="M486.686 315.026H479.942V335.192H486.686V315.026Z" fill="#EBEBEB"/>
<path d="M477.376 272.972H498.328V237.207H477.376V272.972Z" fill="#FBFAFF"/>
<path d="M495.74 240.119H488.996V253.733H495.74V240.119Z" fill="#EBEBEB"/>
<path d="M486.686 240.119H479.942V253.733H486.686V240.119Z" fill="#EBEBEB"/>
<path d="M495.74 256.336H488.996V269.949H495.74V256.336Z" fill="#EBEBEB"/>
<path d="M486.686 256.336H479.942V269.949H486.686V256.336Z" fill="#EBEBEB"/>
<path d="M474.395 410.157L499.8 410.3L500.018 355.207L474.613 355.065L474.395 410.157Z" fill="#FBFAFF"/>
<path d="M484.543 358.88L484.51 367.131L489.979 367.162L490.012 358.91L484.543 358.88Z" fill="#EBEBEB"/>
<path d="M477.394 358.835L477.361 367.087L482.83 367.118L482.863 358.866L477.394 358.835Z" fill="#EBEBEB"/>
<path d="M481.371 397.091L492.918 397.156L492.926 395.171L481.379 395.106L481.371 397.091Z" fill="#EBEBEB"/>
<path d="M487.964 354.674V362.925H493.433V354.674H487.964Z" fill="#EBEBEB"/>
<path d="M484.525 369.298L484.492 377.55L489.961 377.581L489.994 369.329L484.525 369.298Z" fill="#EBEBEB"/>
<path d="M477.322 369.232L477.289 377.483L482.758 377.514L482.791 369.262L477.322 369.232Z" fill="#EBEBEB"/>
<path d="M491.688 369.343L491.656 377.594L497.124 377.625L497.157 369.373L491.688 369.343Z" fill="#EBEBEB"/>
<path d="M484.485 379.74L484.452 387.991L489.921 388.022L489.954 379.771L484.485 379.74Z" fill="#EBEBEB"/>
<path d="M477.304 379.696L477.271 387.947L482.74 387.978L482.773 379.726L477.304 379.696Z" fill="#EBEBEB"/>
<path d="M491.652 379.784L491.619 388.036L497.088 388.066L497.121 379.815L491.652 379.784Z" fill="#EBEBEB"/>
<path d="M190.784 408.177H73.0893L67.8235 340.067H190.784V408.177Z" fill="#DBDBDB"/>
<path d="M190.748 339.979L233.022 276.789L266.686 339.979L261.42 408.089H190.748V339.979Z" fill="#C7C7C7"/>
<path d="M108.213 256.799H236.052L283.407 352.356H270.492L234.315 280.429L199.561 352.356H57.9202L108.213 256.799Z" fill="#A6A6A6"/>
<path d="M104.426 365.352H85.8013V397.123H104.426V365.352Z" fill="#FBFAFF"/>
<path d="M94.0787 367.955H88.0923V380.046H94.0787V367.955Z" fill="#DBDBDB"/>
<path d="M102.116 367.955H96.1296V380.046H102.116V367.955Z" fill="#DBDBDB"/>
<path d="M94.0787 382.341H88.0923V394.431H94.0787V382.341Z" fill="#DBDBDB"/>
<path d="M102.116 382.341H96.1296V394.431H102.116V382.341Z" fill="#DBDBDB"/>
<path d="M172.825 365.352H154.201V397.123H172.825V365.352Z" fill="#FBFAFF"/>
<path d="M162.479 367.955H156.492V380.046H162.479V367.955Z" fill="#DBDBDB"/>
<path d="M170.516 367.955H164.53V380.046H170.516V367.955Z" fill="#DBDBDB"/>
<path d="M162.479 382.341H156.492V394.431H162.479V382.341Z" fill="#DBDBDB"/>
<path d="M170.516 382.341H164.53V394.431H170.516V382.341Z" fill="#DBDBDB"/>
<path d="M138.736 363.653H118.209V408.177H138.736V363.653Z" fill="#FBFAFF"/>
<path d="M130.681 366.72H126.265V373.383H130.681V366.72Z" fill="#DBDBDB"/>
<path d="M136.482 366.72H132.066V373.383H136.482V366.72Z" fill="#DBDBDB"/>
<path d="M133.138 395.954H123.807V397.564H133.138V395.954Z" fill="#DBDBDB"/>
<path d="M124.879 366.72H120.463V373.383H124.879V366.72Z" fill="#DBDBDB"/>
<path d="M130.681 375.148H126.265V381.811H130.681V375.148Z" fill="#DBDBDB"/>
<path d="M136.482 375.148H132.066V381.811H136.482V375.148Z" fill="#DBDBDB"/>
<path d="M124.879 375.148H120.463V381.811H124.879V375.148Z" fill="#DBDBDB"/>
<path d="M130.681 383.576H126.265V390.239H130.681V383.576Z" fill="#DBDBDB"/>
<path d="M136.482 383.576H132.066V390.239H136.482V383.576Z" fill="#DBDBDB"/>
<path d="M124.879 383.576H120.463V390.239H124.879V383.576Z" fill="#DBDBDB"/>
<path d="M135.263 252.982H120.223V276.612H135.263V252.982Z" fill="#DBDBDB"/>
<path d="M135.263 252.982H147.088V256.777L135.263 276.612V252.982Z" fill="#C7C7C7"/>
<path d="M135.263 244.929H118.542V252.96H135.263V244.929Z" fill="#C7C7C7"/>
<path d="M148.381 244.929H135.263V252.96H148.381V244.929Z" fill="#A6A6A6"/>
<path d="M237.308 408.199H275.481L279.121 361.226H237.308V408.199Z" fill="#C7C7C7"/>
<path d="M237.308 361.226L218.444 351.054L218.869 408.199H237.308V361.226Z" fill="#DBDBDB"/>
<path d="M266.538 373.383H250.482V408.177H266.538V373.383Z" fill="#FBFAFF"/>
<path d="M260.238 375.766H256.782V380.973H260.238V375.766Z" fill="#DBDBDB"/>
<path d="M264.764 375.766H261.309V380.973H264.764V375.766Z" fill="#DBDBDB"/>
<path d="M262.159 396.285H254.861V397.542H262.159V396.285Z" fill="#DBDBDB"/>
<path d="M255.711 375.766H252.256V380.973H255.711V375.766Z" fill="#DBDBDB"/>
<path d="M215.562 348.716H271.028L288.95 364.999H235.701L215.562 348.716Z" fill="#A6A6A6"/>
<path d="M235.701 364.999H215.562V348.716L235.701 364.999Z" fill="#C7C7C7"/>
<path d="M223.783 324.909C223.783 327.157 224.342 329.355 225.388 331.224C226.435 333.093 227.922 334.55 229.662 335.409C231.402 336.268 233.316 336.492 235.162 336.052C237.008 335.612 238.704 334.527 240.034 332.936C241.364 331.345 242.269 329.318 242.634 327.112C242.999 324.907 242.808 322.621 242.085 320.546C241.362 318.47 240.139 316.697 238.572 315.451C237.005 314.205 235.163 313.542 233.28 313.546C230.76 313.552 228.344 314.752 226.564 316.882C224.783 319.013 223.783 321.899 223.783 324.909Z" fill="#FBFAFF"/>
<path d="M225.908 324.909C225.908 327.25 226.687 329.495 228.073 331.15C229.459 332.805 231.339 333.735 233.299 333.735C233.923 333.74 234.544 333.643 235.146 333.448C236.867 332.89 238.362 331.608 239.353 329.838C240.345 328.068 240.767 325.929 240.542 323.817C240.317 321.704 239.46 319.76 238.128 318.343C236.797 316.926 235.082 316.131 233.299 316.106C232.675 316.102 232.054 316.199 231.451 316.393C230.591 316.642 229.781 317.092 229.068 317.716C228.097 318.526 227.304 319.601 226.754 320.853C226.204 322.105 225.914 323.496 225.908 324.909Z" fill="#C7C7C7"/>
<path d="M232.264 335.279H234.315V314.363H232.264V335.279Z" fill="#FBFAFF"/>
<path d="M242.057 326.034V323.585H224.541V326.034H242.057Z" fill="#FBFAFF"/>
</svg>
