<svg width="37" height="37" viewBox="0 0 37 37" fill="none" xmlns="http://www.w3.org/2000/svg">
<mask id="mask0_4908_4557" style="mask-type:alpha" maskUnits="userSpaceOnUse" x="0" y="0" width="37" height="37">
<rect width="36.38" height="36.38" fill="#D9D9D9"/>
</mask>
<g mask="url(#mask0_4908_4557)">
<path d="M13.6421 21.2213H28.8004L23.5708 14.4L20.0844 18.9475L17.7348 15.9158L13.6421 21.2213ZM12.1263 27.2846C11.2925 27.2846 10.5788 26.9877 9.98514 26.394C9.39143 25.8003 9.09458 25.0866 9.09458 24.2529V6.06292C9.09458 5.22921 9.39143 4.5155 9.98514 3.9218C10.5788 3.3281 11.2925 3.03125 12.1263 3.03125H30.3162C31.15 3.03125 31.8637 3.3281 32.4574 3.9218C33.0511 4.5155 33.3479 5.22921 33.3479 6.06292V24.2529C33.3479 25.0866 33.0511 25.8003 32.4574 26.394C31.8637 26.9877 31.15 27.2846 30.3162 27.2846H12.1263ZM12.1263 24.2529H30.3162V6.06292H12.1263V24.2529ZM6.06292 33.3479C5.22921 33.3479 4.5155 33.0511 3.9218 32.4574C3.3281 31.8637 3.03125 31.15 3.03125 30.3162V9.09458H6.06292V30.3162H27.2846V33.3479H6.06292Z" fill="#82D1A3"/>
</g>
</svg>
