<svg width="168" height="45" viewBox="0 0 168 45" fill="none" xmlns="http://www.w3.org/2000/svg">
<path d="M28.9608 18.7856C28.9608 15.0928 29.3578 12.0305 26.799 9.0582C25.9608 8.11248 25.0343 7.52702 23.9755 6.85151C22.2108 5.72565 20.2696 4.50972 18.4608 3.564C15.8578 2.16794 13.1225 2.1229 10.5196 3.564C8.5343 4.64483 6.3284 5.95082 4.43134 7.12172C1.69605 8.83302 0.151961 11.2198 0.0196078 14.5524C0.0196078 20.9923 -0.0245098 27.4773 0.0196078 33.9172C0.372549 36.6643 2.84313 38.961 5.66666 38.4206C6.46078 38.2405 7.34313 37.655 8.09313 37.2047C11.3137 35.3583 14.4461 33.3768 17.6225 31.4403C18.1961 30.9449 18.549 30.3144 18.5931 29.5038V18.3353C18.5049 16.669 16.9167 15.8133 15.5931 15.1829C14.6667 14.7325 14.3137 14.8226 13.3872 15.2729C11.9755 15.9935 10.2549 16.8491 10.299 18.6955V29.2336C10.299 29.6839 10.0784 30.4045 9.72546 30.7197C9.41664 31.035 7.43136 32.2059 6.99019 32.386C6.90195 32.386 6.76962 32.4761 6.68139 32.4761C6.59315 30.7197 6.59312 28.9634 6.59312 27.2521C6.59312 23.289 6.59312 19.326 6.59312 15.363C6.72547 13.2464 8.31373 12.706 9.81373 11.8053C11.2255 10.9496 12.9902 9.55357 14.6667 9.55357C15.3725 9.55357 16.2108 10.049 16.8284 10.4092C18.152 11.1298 19.6961 12.0305 20.9313 12.8411C21.9461 13.5166 22.3872 14.4623 22.4755 15.6782V32.5661C22.4755 33.7821 23.6226 34.6827 24.7696 34.5476C25.4314 34.4576 27.3284 33.2867 27.9902 32.8814C28.5637 32.5211 28.8725 32.431 28.9608 31.6654C29.049 27.3872 28.9608 23.0639 28.9608 18.7406M16.0343 22.6586C16.4755 22.6586 16.8284 23.0189 16.8284 23.4692C16.8284 23.9195 16.4755 24.2798 16.0343 24.2798C15.5931 24.2798 15.2402 23.9195 15.2402 23.4692C15.2402 23.0189 15.5931 22.6586 16.0343 22.6586Z" fill="#27AE60"/>
<path d="M51.83 18.36C51.83 19.42 51.58 20.42 51.08 21.36C50.58 22.3 49.78 23.07 48.68 23.67C47.58 24.25 46.17 24.54 44.45 24.54H40.67V33H37.25V12.15H44.45C46.05 12.15 47.4 12.43 48.5 12.99C49.62 13.53 50.45 14.27 50.99 15.21C51.55 16.15 51.83 17.2 51.83 18.36ZM44.45 21.75C45.75 21.75 46.72 21.46 47.36 20.88C48 20.28 48.32 19.44 48.32 18.36C48.32 16.08 47.03 14.94 44.45 14.94H40.67V21.75H44.45ZM58.5118 18.87C59.0118 18.03 59.6718 17.38 60.4918 16.92C61.3318 16.44 62.3218 16.2 63.4618 16.2V19.74H62.5918C61.2518 19.74 60.2318 20.08 59.5318 20.76C58.8518 21.44 58.5118 22.62 58.5118 24.3V33H55.0918V16.47H58.5118V18.87ZM73.7755 33.27C72.2155 33.27 70.8055 32.92 69.5455 32.22C68.2855 31.5 67.2955 30.5 66.5755 29.22C65.8555 27.92 65.4955 26.42 65.4955 24.72C65.4955 23.04 65.8655 21.55 66.6055 20.25C67.3455 18.95 68.3555 17.95 69.6355 17.25C70.9155 16.55 72.3455 16.2 73.9255 16.2C75.5055 16.2 76.9355 16.55 78.2155 17.25C79.4955 17.95 80.5055 18.95 81.2455 20.25C81.9855 21.55 82.3555 23.04 82.3555 24.72C82.3555 26.4 81.9755 27.89 81.2155 29.19C80.4555 30.49 79.4155 31.5 78.0955 32.22C76.7955 32.92 75.3555 33.27 73.7755 33.27ZM73.7755 30.3C74.6555 30.3 75.4755 30.09 76.2355 29.67C77.0155 29.25 77.6455 28.62 78.1255 27.78C78.6055 26.94 78.8455 25.92 78.8455 24.72C78.8455 23.52 78.6155 22.51 78.1555 21.69C77.6955 20.85 77.0855 20.22 76.3255 19.8C75.5655 19.38 74.7455 19.17 73.8655 19.17C72.9855 19.17 72.1655 19.38 71.4055 19.8C70.6655 20.22 70.0755 20.85 69.6355 21.69C69.1955 22.51 68.9755 23.52 68.9755 24.72C68.9755 26.5 69.4255 27.88 70.3255 28.86C71.2455 29.82 72.3955 30.3 73.7755 30.3ZM89.1563 18.9C89.7363 18.14 90.5263 17.5 91.5263 16.98C92.5263 16.46 93.6563 16.2 94.9163 16.2C96.3563 16.2 97.6663 16.56 98.8463 17.28C100.046 17.98 100.986 18.97 101.666 20.25C102.346 21.53 102.686 23 102.686 24.66C102.686 26.32 102.346 27.81 101.666 29.13C100.986 30.43 100.046 31.45 98.8463 32.19C97.6663 32.91 96.3563 33.27 94.9163 33.27C93.6563 33.27 92.5363 33.02 91.5563 32.52C90.5763 32 89.7763 31.36 89.1563 30.6V40.86H85.7363V16.47H89.1563V18.9ZM99.2063 24.66C99.2063 23.52 98.9663 22.54 98.4863 21.72C98.0263 20.88 97.4063 20.25 96.6263 19.83C95.8663 19.39 95.0463 19.17 94.1663 19.17C93.3063 19.17 92.4863 19.39 91.7063 19.83C90.9463 20.27 90.3263 20.91 89.8463 21.75C89.3863 22.59 89.1563 23.58 89.1563 24.72C89.1563 25.86 89.3863 26.86 89.8463 27.72C90.3263 28.56 90.9463 29.2 91.7063 29.64C92.4863 30.08 93.3063 30.3 94.1663 30.3C95.0463 30.3 95.8663 30.08 96.6263 29.64C97.4063 29.18 98.0263 28.52 98.4863 27.66C98.9663 26.8 99.2063 25.8 99.2063 24.66ZM121.218 24.33C121.218 24.95 121.178 25.51 121.098 26.01H108.468C108.568 27.33 109.058 28.39 109.938 29.19C110.818 29.99 111.898 30.39 113.178 30.39C115.018 30.39 116.318 29.62 117.078 28.08H120.768C120.268 29.6 119.358 30.85 118.038 31.83C116.738 32.79 115.118 33.27 113.178 33.27C111.598 33.27 110.178 32.92 108.918 32.22C107.678 31.5 106.698 30.5 105.978 29.22C105.278 27.92 104.928 26.42 104.928 24.72C104.928 23.02 105.268 21.53 105.948 20.25C106.648 18.95 107.618 17.95 108.858 17.25C110.118 16.55 111.558 16.2 113.178 16.2C114.738 16.2 116.128 16.54 117.348 17.22C118.568 17.9 119.518 18.86 120.198 20.1C120.878 21.32 121.218 22.73 121.218 24.33ZM117.648 23.25C117.628 21.99 117.178 20.98 116.298 20.22C115.418 19.46 114.328 19.08 113.028 19.08C111.848 19.08 110.838 19.46 109.998 20.22C109.158 20.96 108.658 21.97 108.498 23.25H117.648ZM132.924 16.2C134.224 16.2 135.384 16.47 136.404 17.01C137.444 17.55 138.254 18.35 138.834 19.41C139.414 20.47 139.704 21.75 139.704 23.25V33H136.314V23.76C136.314 22.28 135.944 21.15 135.204 20.37C134.464 19.57 133.454 19.17 132.174 19.17C130.894 19.17 129.874 19.57 129.114 20.37C128.374 21.15 128.004 22.28 128.004 23.76V33H124.584V16.47H128.004V18.36C128.564 17.68 129.274 17.15 130.134 16.77C131.014 16.39 131.944 16.2 132.924 16.2ZM159.036 16.47V33H155.616V31.05C155.076 31.73 154.366 32.27 153.486 32.67C152.626 33.05 151.706 33.24 150.726 33.24C149.426 33.24 148.256 32.97 147.216 32.43C146.196 31.89 145.386 31.09 144.786 30.03C144.206 28.97 143.916 27.69 143.916 26.19V16.47H147.306V25.68C147.306 27.16 147.676 28.3 148.416 29.1C149.156 29.88 150.166 30.27 151.446 30.27C152.726 30.27 153.736 29.88 154.476 29.1C155.236 28.3 155.616 27.16 155.616 25.68V16.47H159.036Z" fill="#27AE60"/>
<path d="M158.29 10.1051V9.63636H161.562V10.1051H160.19V14H159.662V10.1051H158.29ZM162.378 9.63636H163.009L164.492 13.2585H164.543L166.026 9.63636H166.656V14H166.162V10.6847H166.119L164.756 14H164.279L162.915 10.6847H162.872V14H162.378V9.63636Z" fill="#646464"/>
</svg>
