<?xml version="1.0" encoding="UTF-8"?>
<svg xmlns="http://www.w3.org/2000/svg" id="Layer_1" data-name="Layer 1" viewBox="0 0 24 24">
  <path d="M20.698,13.302c.391,.391,.391,1.024,0,1.414s-1.024,.391-1.414,0-.391-1.024,0-1.414c.391-.391,1.024-.391,1.414,0Zm3.302,1.698c0,2.757-2.243,5-5,5-.415,0-.836-.061-1.28-.185l-3.159,3.159c-.661,.661-1.54,1.025-2.475,1.025h-1.086c-.551,0-1-.448-1-1v-1.5c0-.551,.448-1,1-1h1v-1c0-.551,.449-1,1-1h.494l-.009-.672c-.006-.505,.185-.982,.536-1.344l.171-.175c-.129-.453-.192-.884-.192-1.31,0-2.757,2.243-5,5-5s5,2.243,5,5Zm-1,0c0-2.206-1.794-4-4-4s-4,1.794-4,4c0,.406,.076,.826,.231,1.284,.061,.178,.016,.375-.115,.51l-.379,.389c-.166,.17-.255,.395-.252,.633l.015,1.178c.009,.271-.229,.512-.5,.506h-1v1.5c0,.276-.224,.5-.5,.5h-1.5v1.5s1.087,0,1.087,0c.668,0,1.295-.26,1.768-.732l3.372-3.372c.134-.134,.333-.181,.512-.121,.453,.151,.865,.225,1.262,.225,2.206,0,4-1.794,4-4ZM7.5,23h-3c-1.93,0-3.5-1.57-3.5-3.5V9.561c0-1.165,.577-2.25,1.542-2.901L10.042,1.599c1.189-.803,2.727-.803,3.915,0l7.5,5.061c.966,.652,1.542,1.736,1.542,2.901,0,.276,.224,.5,.5,.5s.5-.224,.5-.5c0-1.498-.741-2.893-1.983-3.73L14.517,.77c-1.529-1.031-3.504-1.031-5.034,0L1.983,5.831c-1.242,.838-1.983,2.232-1.983,3.73v9.939c0,2.481,2.019,4.5,4.5,4.5h3c.276,0,.5-.224,.5-.5s-.224-.5-.5-.5Z"/>
</svg>
