<svg id="Layer_1" viewBox="0 0 24 24" xmlns="http://www.w3.org/2000/svg" data-name="Layer 1"><path d="m5.992 8.256c.414 0 .749.335.749.749s-.335.749-.749.749-.749-.335-.749-.749.335-.749.749-.749zm17.008 8.05c0 3.065-.529 5.662-.553 5.771-.037.182-.173.328-.352.379-.075.021-1.875.527-4.087.527s-4.009-.496-4.085-.517c-.18-.05-.317-.197-.355-.38-.022-.11-.552-2.724-.552-5.789s.441-5.276.459-5.368c.02-.097.067-.185.137-.254 1.48-1.48 3.21-2.633 3.862-3.046.044-4.022-1.436-5.634-5.491-5.611-3.077 0-4.62.902-5.203 3.041 2.922.225 4.204 1.729 4.204 4.946 0 2.249-.643 3.652-2.018 4.381.08 3.159-.123 5.618-.126 5.644-.222 1.992-1.206 2.954-3.011 2.954-1.705 0-2.591-.718-2.787-2.258-.02-.156.035-.312.147-.421.662-.644.803-.904.805-1.009-.024-.162-.422-.659-.835-1.033-.104-.094-.163-.228-.164-.368 0-.14.058-.274.16-.369.41-.379.81-.878.839-1.047-.039-.106-.444-.605-.847-.993-.101-.098-.156-.233-.153-.372.007-.26.018-.496.033-.723-1.382-.727-2.029-2.132-2.029-4.387 0-3.416 1.437-4.909 4.761-4.979.651-2.754 2.578-4.007 6.221-4.007 4.58-.013 6.52 2.002 6.49 6.565.591.372 2.399 1.558 3.933 3.091.069.069.117.158.137.254.019.093.458 2.314.458 5.378zm-17.008-10.296c-2.948 0-3.994 1.045-3.994 3.994 0 2.027.522 3.11 1.744 3.62.199.083.322.284.306.499-.02.255-.036.515-.047.801.485.488.992 1.11.992 1.571 0 .452-.422 1.003-.788 1.395.367.389.788.937.788 1.405 0 .531-.432 1.05-.922 1.541.145.731.531 1.148 1.758 1.148 1.304 0 1.851-.556 2.017-2.053 0-.013.214-2.589.113-5.842-.007-.206.114-.394.303-.475 1.208-.515 1.723-1.595 1.723-3.611 0-2.948-1.045-3.994-3.994-3.994zm16.01 10.296c0-2.523-.316-4.495-.411-5.034-1.34-1.311-2.949-2.377-3.584-2.784-.644.414-2.251 1.483-3.58 2.784-.096.538-.412 2.503-.412 5.025 0 2.367.337 4.507.475 5.282.582.135 1.955.407 3.519.407s2.939-.278 3.519-.414c.137-.769.475-2.897.475-5.264z"/></svg>