<?xml version="1.0" encoding="UTF-8"?>
<svg xmlns="http://www.w3.org/2000/svg" id="Layer_1" data-name="Layer 1" viewBox="0 0 24 24">
  <path d="M24,10v.106c-.406-.415-.866-.775-1.365-1.079-.063-.073-.13-.144-.208-.205L12.927,1.353c-.546-.429-1.308-.429-1.854,0L1.573,8.821c-.364,.286-.573,.716-.573,1.179v13h7v1H0V10c0-.772,.348-1.489,.956-1.965L10.455,.567c.91-.715,2.18-.715,3.09,0l9.5,7.468c.607,.477,.955,1.193,.955,1.965Zm-4.716,3.302c-.391,.391-.391,1.024,0,1.414s1.024,.391,1.414,0,.391-1.024,0-1.414c-.391-.391-1.024-.391-1.414,0Zm4.716,1.698c0,2.757-2.243,5-5,5-.415,0-.836-.061-1.28-.185l-4.184,4.184h-3.536s0-3.5,0-3.5h2v-2h1.494l-.019-1.455,.717-.736c-.129-.453-.192-.884-.192-1.31,0-2.757,2.243-5,5-5s5,2.243,5,5Zm-1,0c0-2.206-1.794-4-4-4s-4,1.794-4,4c-.01,.484,.141,1.064,.331,1.574l-.851,.873,.026,2.053h-1.506v2h-2v1.5s2.123,0,2.123,0l4.322-4.323c.505,.183,1.081,.334,1.556,.323,2.206,0,4-1.794,4-4Z"/>
</svg>
