<svg width="234" height="53" viewBox="0 0 234 53" fill="none" xmlns="http://www.w3.org/2000/svg">
<path d="M78.9608 22.019C78.9608 18.3262 79.3578 15.2639 76.799 12.2916C75.9608 11.3459 75.0343 10.7604 73.9755 10.0849C72.2108 8.95905 70.2696 7.74312 68.4608 6.7974C65.8578 5.40134 63.1225 5.3563 60.5196 6.7974C58.5343 7.87823 56.3284 9.18422 54.4313 10.3551C51.6961 12.0664 50.152 14.4532 50.0196 17.7858C50.0196 24.2257 49.9755 30.7107 50.0196 37.1506C50.3725 39.8977 52.8431 42.1944 55.6667 41.654C56.4608 41.4739 57.3431 40.8884 58.0931 40.4381C61.3137 38.5917 64.4461 36.6102 67.6225 34.6737C68.1961 34.1783 68.549 33.5478 68.5931 32.7372V21.5687C68.5049 19.9024 66.9167 19.0467 65.5931 18.4163C64.6667 17.9659 64.3137 18.056 63.3872 18.5063C61.9755 19.2269 60.2549 20.0825 60.299 21.9289V32.467C60.299 32.9173 60.0784 33.6379 59.7255 33.9531C59.4166 34.2684 57.4314 35.4392 56.9902 35.6194C56.902 35.6194 56.7696 35.7095 56.6814 35.7095C56.5932 33.9531 56.5931 32.1968 56.5931 30.4855C56.5931 26.5224 56.5931 22.5594 56.5931 18.5964C56.7255 16.4798 58.3137 15.9394 59.8137 15.0387C61.2255 14.183 62.9902 12.787 64.6667 12.787C65.3725 12.787 66.2108 13.2824 66.8284 13.6426C68.152 14.3632 69.6961 15.2639 70.9313 16.0745C71.9461 16.75 72.3872 17.6957 72.4755 18.9116V35.7995C72.4755 37.0155 73.6226 37.9161 74.7696 37.781C75.4314 37.691 77.3284 36.5201 77.9902 36.1148C78.5637 35.7545 78.8725 35.6644 78.9608 34.8988C79.049 30.6206 78.9608 26.2973 78.9608 21.974M66.0343 25.892C66.4755 25.892 66.8284 26.2522 66.8284 26.7026C66.8284 27.1529 66.4755 27.5132 66.0343 27.5132C65.5931 27.5132 65.2402 27.1529 65.2402 26.7026C65.2402 26.2522 65.5931 25.892 66.0343 25.892Z" fill="#27AE60"/>
<path d="M101.83 21.5934C101.83 22.6534 101.58 23.6534 101.08 24.5934C100.58 25.5334 99.78 26.3034 98.68 26.9034C97.58 27.4834 96.17 27.7734 94.45 27.7734H90.67V36.2334H87.25V15.3834H94.45C96.05 15.3834 97.4 15.6634 98.5 16.2234C99.62 16.7634 100.45 17.5034 100.99 18.4434C101.55 19.3834 101.83 20.4334 101.83 21.5934ZM94.45 24.9834C95.75 24.9834 96.72 24.6934 97.36 24.1134C98 23.5134 98.32 22.6734 98.32 21.5934C98.32 19.3134 97.03 18.1734 94.45 18.1734H90.67V24.9834H94.45ZM108.512 22.1034C109.012 21.2634 109.672 20.6134 110.492 20.1534C111.332 19.6734 112.322 19.4334 113.462 19.4334V22.9734H112.592C111.252 22.9734 110.232 23.3134 109.532 23.9934C108.852 24.6734 108.512 25.8534 108.512 27.5334V36.2334H105.092V19.7034H108.512V22.1034ZM123.775 36.5034C122.215 36.5034 120.805 36.1534 119.545 35.4534C118.285 34.7334 117.295 33.7334 116.575 32.4534C115.855 31.1534 115.495 29.6534 115.495 27.9534C115.495 26.2734 115.865 24.7834 116.605 23.4834C117.345 22.1834 118.355 21.1834 119.635 20.4834C120.915 19.7834 122.345 19.4334 123.925 19.4334C125.505 19.4334 126.935 19.7834 128.215 20.4834C129.495 21.1834 130.505 22.1834 131.245 23.4834C131.985 24.7834 132.355 26.2734 132.355 27.9534C132.355 29.6334 131.975 31.1234 131.215 32.4234C130.455 33.7234 129.415 34.7334 128.095 35.4534C126.795 36.1534 125.355 36.5034 123.775 36.5034ZM123.775 33.5334C124.655 33.5334 125.475 33.3234 126.235 32.9034C127.015 32.4834 127.645 31.8534 128.125 31.0134C128.605 30.1734 128.845 29.1534 128.845 27.9534C128.845 26.7534 128.615 25.7434 128.155 24.9234C127.695 24.0834 127.085 23.4534 126.325 23.0334C125.565 22.6134 124.745 22.4034 123.865 22.4034C122.985 22.4034 122.165 22.6134 121.405 23.0334C120.665 23.4534 120.075 24.0834 119.635 24.9234C119.195 25.7434 118.975 26.7534 118.975 27.9534C118.975 29.7334 119.425 31.1134 120.325 32.0934C121.245 33.0534 122.395 33.5334 123.775 33.5334ZM139.156 22.1334C139.736 21.3734 140.526 20.7334 141.526 20.2134C142.526 19.6934 143.656 19.4334 144.916 19.4334C146.356 19.4334 147.666 19.7934 148.846 20.5134C150.046 21.2134 150.986 22.2034 151.666 23.4834C152.346 24.7634 152.686 26.2334 152.686 27.8934C152.686 29.5534 152.346 31.0434 151.666 32.3634C150.986 33.6634 150.046 34.6834 148.846 35.4234C147.666 36.1434 146.356 36.5034 144.916 36.5034C143.656 36.5034 142.536 36.2534 141.556 35.7534C140.576 35.2334 139.776 34.5934 139.156 33.8334V44.0934H135.736V19.7034H139.156V22.1334ZM149.206 27.8934C149.206 26.7534 148.966 25.7734 148.486 24.9534C148.026 24.1134 147.406 23.4834 146.626 23.0634C145.866 22.6234 145.046 22.4034 144.166 22.4034C143.306 22.4034 142.486 22.6234 141.706 23.0634C140.946 23.5034 140.326 24.1434 139.846 24.9834C139.386 25.8234 139.156 26.8134 139.156 27.9534C139.156 29.0934 139.386 30.0934 139.846 30.9534C140.326 31.7934 140.946 32.4334 141.706 32.8734C142.486 33.3134 143.306 33.5334 144.166 33.5334C145.046 33.5334 145.866 33.3134 146.626 32.8734C147.406 32.4134 148.026 31.7534 148.486 30.8934C148.966 30.0334 149.206 29.0334 149.206 27.8934ZM171.218 27.5634C171.218 28.1834 171.178 28.7434 171.098 29.2434H158.468C158.568 30.5634 159.058 31.6234 159.938 32.4234C160.818 33.2234 161.898 33.6234 163.178 33.6234C165.018 33.6234 166.318 32.8534 167.078 31.3134H170.768C170.268 32.8334 169.358 34.0834 168.038 35.0634C166.738 36.0234 165.118 36.5034 163.178 36.5034C161.598 36.5034 160.178 36.1534 158.918 35.4534C157.678 34.7334 156.698 33.7334 155.978 32.4534C155.278 31.1534 154.928 29.6534 154.928 27.9534C154.928 26.2534 155.268 24.7634 155.948 23.4834C156.648 22.1834 157.618 21.1834 158.858 20.4834C160.118 19.7834 161.558 19.4334 163.178 19.4334C164.738 19.4334 166.128 19.7734 167.348 20.4534C168.568 21.1334 169.518 22.0934 170.198 23.3334C170.878 24.5534 171.218 25.9634 171.218 27.5634ZM167.648 26.4834C167.628 25.2234 167.178 24.2134 166.298 23.4534C165.418 22.6934 164.328 22.3134 163.028 22.3134C161.848 22.3134 160.838 22.6934 159.998 23.4534C159.158 24.1934 158.658 25.2034 158.498 26.4834H167.648ZM182.924 19.4334C184.224 19.4334 185.384 19.7034 186.404 20.2434C187.444 20.7834 188.254 21.5834 188.834 22.6434C189.414 23.7034 189.704 24.9834 189.704 26.4834V36.2334H186.314V26.9934C186.314 25.5134 185.944 24.3834 185.204 23.6034C184.464 22.8034 183.454 22.4034 182.174 22.4034C180.894 22.4034 179.874 22.8034 179.114 23.6034C178.374 24.3834 178.004 25.5134 178.004 26.9934V36.2334H174.584V19.7034H178.004V21.5934C178.564 20.9134 179.274 20.3834 180.134 20.0034C181.014 19.6234 181.944 19.4334 182.924 19.4334ZM209.036 19.7034V36.2334H205.616V34.2834C205.076 34.9634 204.366 35.5034 203.486 35.9034C202.626 36.2834 201.706 36.4734 200.726 36.4734C199.426 36.4734 198.256 36.2034 197.216 35.6634C196.196 35.1234 195.386 34.3234 194.786 33.2634C194.206 32.2034 193.916 30.9234 193.916 29.4234V19.7034H197.306V28.9134C197.306 30.3934 197.676 31.5334 198.416 32.3334C199.156 33.1134 200.166 33.5034 201.446 33.5034C202.726 33.5034 203.736 33.1134 204.476 32.3334C205.236 31.5334 205.616 30.3934 205.616 28.9134V19.7034H209.036Z" fill="#27AE60"/>
<path d="M208.29 13.3385V12.8698H211.562V13.3385H210.19V17.2334H209.662V13.3385H208.29ZM212.378 12.8698H213.009L214.492 16.4919H214.543L216.026 12.8698H216.656V17.2334H216.162V13.9181H216.119L214.756 17.2334H214.279L212.915 13.9181H212.872V17.2334H212.378V12.8698Z" fill="#646464"/>
</svg>
