<svg width="14" height="15" viewBox="0 0 14 15" fill="none" xmlns="http://www.w3.org/2000/svg">
<g clip-path="url(#clip0_3724_1770)">
<path d="M0.298516 7.41018C0.298187 8.67048 0.607937 9.90106 1.19692 10.9857L0.242188 14.6916L3.80956 13.6972C4.79626 14.2683 5.90177 14.5675 7.02519 14.5676H7.02814C10.7368 14.5676 13.7557 11.3593 13.7573 7.41582C13.758 5.50495 13.0586 3.70809 11.788 2.35623C10.5176 1.00449 8.82807 0.259661 7.02787 0.258789C3.3188 0.258789 0.300102 3.46693 0.29857 7.41018" fill="url(#paint0_linear_3724_1770)"/>
<path d="M0.0585156 7.40791C0.0581328 8.71355 0.378984 9.98814 0.988969 11.1116L0 14.9504L3.69529 13.9203C4.71346 14.5105 5.85982 14.8217 7.0263 14.8222H7.02931C10.871 14.8222 13.9984 11.4984 14 7.41384C14.0007 5.4343 13.2762 3.57285 11.9602 2.17256C10.644 0.772442 8.89399 0.000813953 7.02931 0C3.18697 0 0.0600469 3.32326 0.0585156 7.40791ZM2.2592 10.9181L2.12122 10.6853C1.5412 9.70483 1.23506 8.5718 1.2355 7.40837C1.2367 4.01331 3.83567 1.25116 7.0315 1.25116C8.57916 1.25186 10.0336 1.89326 11.1276 3.05698C12.2215 4.22081 12.8235 5.76791 12.8231 7.41337C12.8216 10.8084 10.2226 13.5709 7.02931 13.5709H7.02702C5.98724 13.5703 4.96748 13.2735 4.07816 12.7125L3.86652 12.5791L1.67366 13.1903L2.2592 10.9181Z" fill="url(#paint1_linear_3724_1770)"/>
<path d="M5.28707 4.31058C5.15659 4.00226 5.01927 3.99604 4.89518 3.99064C4.79357 3.98599 4.67741 3.98633 4.56137 3.98633C4.44521 3.98633 4.25648 4.03279 4.09696 4.21796C3.93727 4.40331 3.4873 4.85122 3.4873 5.76221C3.4873 6.67319 4.11145 7.55366 4.19846 7.67732C4.28558 7.80075 5.40339 9.73005 7.17373 10.4723C8.64505 11.0891 8.94446 10.9664 9.26378 10.9355C9.58316 10.9046 10.2943 10.4877 10.4394 10.0553C10.5846 9.62296 10.5846 9.25238 10.5411 9.17494C10.4975 9.09779 10.3814 9.05145 10.2072 8.95889C10.033 8.86633 9.17666 8.41831 9.01703 8.35651C8.85734 8.29476 8.74124 8.26395 8.62509 8.44936C8.50893 8.63447 8.17539 9.05145 8.07373 9.17494C7.97217 9.29872 7.87051 9.31412 7.69638 9.22151C7.52209 9.1286 6.96116 8.93331 6.29567 8.30256C5.77789 7.81174 5.42833 7.20564 5.32672 7.02023C5.22511 6.83511 5.31584 6.73476 5.40317 6.6425C5.48143 6.55953 5.57741 6.42628 5.66458 6.31819C5.75142 6.21006 5.78041 6.1329 5.83848 6.00942C5.89662 5.88581 5.86752 5.77767 5.82405 5.68506C5.78041 5.59244 5.44195 4.67668 5.28707 4.31058Z" fill="white"/>
</g>
<defs>
<linearGradient id="paint0_linear_3724_1770" x1="675.997" y1="1443.54" x2="675.997" y2="0.258789" gradientUnits="userSpaceOnUse">
<stop stop-color="#1FAF38"/>
<stop offset="1" stop-color="#60D669"/>
</linearGradient>
<linearGradient id="paint1_linear_3724_1770" x1="700" y1="1495.04" x2="700" y2="0" gradientUnits="userSpaceOnUse">
<stop stop-color="#F9F9F9"/>
<stop offset="1" stop-color="white"/>
</linearGradient>
<clipPath id="clip0_3724_1770">
<rect width="14" height="15" fill="white"/>
</clipPath>
</defs>
</svg>
